<svg xmlns="http://www.w3.org/2000/svg" viewBox="0 0 639 195"><g fill="none" stroke-width="2"><path stroke="#f7a692" d="m233.24 20.62 9.16 2.71" vector-effect="non-scaling-stroke"/><path stroke="#fcd08f" d="m242.4 23.33 14.34 8.27q.47.28.79-.17l5.89-8.47a.69.68-53.2 0 0-.13-.93q-10.04-8.23-21.62-12.47" vector-effect="non-scaling-stroke"/><path stroke="#f7a692" d="m241.67 9.56-13.71-3.07" vector-effect="non-scaling-stroke"/><path stroke="#cb85a1" d="M227.96 6.49q-24.4-2.87-44.93 10.15-.42.26-.13.66l6.3 8.79q.29.4.72.15c12.57-7.54 29.28-7.9 43.32-5.62" vector-effect="non-scaling-stroke"/><path stroke="#c32c34" d="m227.96 6.49-.14 11.7a.71.71 0 0 0 .67.72l3.85.27a.89.86 73.1 0 1 .67.37q.57.8.23 1.07" vector-effect="non-scaling-stroke"/><path stroke="#f47722" d="M241.67 9.56q-1.59 5.36-1.63 10.85 0 .57.51.8l1.55.71a.66.65-75.4 0 1 .39.67l-.09.74" vector-effect="non-scaling-stroke"/><path stroke="#80adc6" d="m318.33 101.25 33.35 1.3a.61.61 0 0 0 .6-.41l4.94-14.25q.22-.63.88-.62l29.74.11q.54 0 .73.51l5.04 13.78q.34.93 1.33.87c22.23-1.3 44.5-.75 66.75-.53q.5 0 .48-.5-1.84-45.73-.22-91.46.03-.63-.61-.63l-36.95.03q-1.39 0-1.3 1.39 2.42 37.7 2.18 75.47a.24.24 0 0 1-.46.11l-36.84-77.2a.85.84 77.1 0 0-.76-.48l-30.19.03q-.67 0-.91.62-12.66 33.28-26.78 65.96a.69.68 17.4 0 1-.78.4c-8.28-1.79-19.07-6.74-22.36-14.97-5.97-14.98 13.6-22.42 23.76-26.76q.5-.22.21-.67L314.07 7.47a.7.7 0 0 0-.79-.3c-23.56 7.18-56.82 26.76-50.49 56.86 4.85 23.11 32.53 36.1 52.96 41.26a.72.71-73.6 0 0 .86-.47l1-3.07q.17-.52.72-.5M505.95 73.82q8.96 15.95 21.89 28.98a1.32 1.29 63.8 0 0 1.07.38l30.22-3.72a.35.35 0 0 1 .37.46l-.53 1.53a.63.62 8.6 0 0 .62.83q30.99-1.13 61.9 1.41.42.03.54-.37l6.94-23.74q.16-.53-.4-.57l-27.4-1.52q-.77-.05-.75-.82l.32-8.38q.02-.46.48-.5 11.8-.91 23.52.69a.36.35 8.2 0 0 .4-.29l4.28-25.23q.11-.67-.56-.6-14.29 1.49-28.63.53-.78-.06-.75-.84l.35-8.23a.66.66 0 0 1 .59-.62q14.54-1.37 29.03.15.66.07.51-.57l-5.44-23.23q-.13-.58-.72-.58l-64.3-.27a.71.71 0 0 0-.7.82c4.7 28.04 3.19 59.24 1.06 87.52a.5.5 0 0 1-.88.28q-11.1-13.26-17.93-29.15a1.3 1.29 58.2 0 1 .35-1.5c8.03-6.79 22.99-19.04 16.28-31.3C550.52 22.3 538.06 9.55 522 9.51q-28.28-.07-55.84.31-1.19.02-1.05 1.2 5.19 45.01 3.47 90.31-.03.62.59.62l33.02.17q.56 0 .57-.56l.51-27.07a1.43 1.43 0 0 1 2.68-.67" vector-effect="non-scaling-stroke"/><path stroke="#80adc6" d="M88.03 18.28q.62-2.76.88.06 1.45 15.48 2.32 29.43c1.11 17.58.48 35.89.54 53.76q0 .42.42.43l32.66.29a.81.8-88.9 0 0 .81-.79l.73-27.2a1.32 1.31-59.1 0 1 2.46-.62q9.07 16.07 22.07 29.2.42.42 1 .35l30.86-3.8q.74-.09.28-.68c-8.1-10.27-14.55-19.24-18.99-31.18a.68.68 0 0 1 .2-.76q7.81-6.44 14.24-14.24a.24.24 0 0 1 .42.21c-5.2 20.63.96 43.94 22.71 51.17 7.98 2.65 17.49 2.77 26.11 1.77 17.42-2.02 30.25-13.09 32.21-31.19 4.12-37.89-22.75-52.24-56.46-44.25q-12.74 3.02-20.34 13.21-.64.86-.65-.21l-.03-3.24a.95.92-58 0 0-.08-.38c-5.44-13.08-19.57-30.11-35.15-30.12-24.96-.01-49.99-.35-74.94.35q-31.4.88-62.84-.55a.63.63 0 0 0-.65.49c-2.41 9.91-1.87 20.46-1.8 30.52a.68.67 87.7 0 0 .73.68l21.17-1.72q.63-.05.61.58l-1.97 61.45q-.02.7.68.7h36.44q.69 0 .66-.68l-2.38-60.83q-.03-.58.55-.56l19.5.84q.57.02.67-.54 1.89-11.03 4.35-21.95" vector-effect="non-scaling-stroke"/><path stroke="gray" d="m124.16 150.3.13-28.22a.87.87 0 0 0-1.28-.77q-2.98 1.6-6.41 2.65-.37.11-.51.32-.19.3-.07.74a.6.59-12.2 0 0 .68.43c2.45-.45 3.31.74 3.31 3.06q-.01 15.61-.01 31.24 0 .62-.52.95l-2 1.24a.47.47 0 0 0 .24.87l10.3.1a.58.58 0 0 0 .2-1.13l-3.44-1.21a.79.79 0 0 1-.53-.76l.01-6.64a1.06 1.06 0 0 1 1.87-.69l8.61 10.04q.33.39.84.39l6.99.03q.3 0 .46-.26l.18-.31q.32-.54-.3-.61c-1.9-.21-3.71-.38-5.14-1.85q-4.62-4.79-8.71-10.08-.31-.41 0-.81 4.62-5.97 11.65-8.49a.52.51-55.2 0 0-.18-1l-9.57.15a.34.34 0 0 0-.16.64l1.93 1.12a.85.85 0 0 1 .15 1.36l-8.33 7.67q-.4.37-.39-.17M586.83 160.66l-2.11 1.23a.49.49 0 0 0 .24.92l10.4.15q.43 0 .61-.38l.2-.42a.44.44 0 0 0-.41-.63q-2.14.08-3.84-1.18a1.07 1.05 19 0 1-.42-.84v-37.28a.83.83 0 0 0-1.15-.77l-6.71 2.81a.44.43-48.9 0 0 .05.82l2.94.76q.62.16.62.8v33.28a.85.83 75.3 0 1-.42.73M618.77 160.26l-.1 2.71a.58.58 0 0 0 .7.59q2.88-.64 5.8-.7.89-.02 1.07-.63.12-.41-.29-.53l-2.63-.72a.77.76-82.6 0 1-.57-.74v-38.15a.82.81-11.3 0 0-1.13-.75l-7.06 2.95a.43.43 0 0 0 .08.81l3.36.69q.62.13.63.77l.17 13.65q.01.57-.49.3c-11.55-6.37-21.27 6.64-16.45 17.01 3.26 7 10.86 7.72 16.39 2.5q.56-.53.52.24M248.54 141.75h4.45q.52 0 .81-.43l1.11-1.68a.35.35 0 0 0-.32-.54l-5.68.53q-.63.06-.65-.57c-.22-6.12-.62-14.41 6.97-14.36a1.03 1.03 0 0 1 .77.37l1.43 1.74q.67.83.78-.23l.34-3.53q.06-.58-.48-.8-2.04-.84-3.55-.24c-7.12 2.82-10.1 9.48-10.5 16.99q-.03.5-.53.5h-2.74q-.5 0-.5.5v1.34a.55.54-2 0 0 .59.54l2.62-.18q.54-.03.54.51v17.86q0 .44-.38.65l-2.05 1.15a.53.53 0 0 0 .27.99l9.99-.16a.17.17 0 0 0 .17-.17q0-.14.01-.28.03-.59-.56-.58-3.46.02-3.32-3.66.28-7.92-.01-15.83-.01-.43.42-.43M38.03 137.18q-1.74-4.41-3.47-8.93c-.65-1.68-.11-3 1.62-3.43a.67.67 0 0 0-.16-1.32H24.75a.69.68 66.9 0 0-.47 1.18c1.86 1.81 3.97-.42 5.6 3.56q2.91 7.07 5.87 14.21a1.42 1.39-45.6 0 1 0 1.09l-5 11.93a.54.54 0 0 1-1-.01l-11.39-28.15a1.65 1.64-14.3 0 1 1.34-2.25q.97-.12 1.38-.93a.44.44 0 0 0-.39-.63H10.56a.75.75 0 0 0-.22 1.46c3.2 1.02 3.74 3.02 4.89 5.89q6.56 16.4 13.03 32.29a1.08 1.07 44.9 0 0 1.99 0l6.68-16.4a.27.27 0 0 1 .5 0l7.05 16.74a.84.84 0 0 0 1.48.13q.37-.59.71-1.36 7.07-16.29 13.96-32.68c.97-2.3 1.94-3.61 3.7-5.28a.46.46 0 0 0-.32-.79H55a.66.66 0 0 0-.26 1.27l2.52 1.07a1.91 1.89-67.4 0 1 1.01 2.47l-11.43 28.01a.41.4 45.2 0 1-.75-.01l-6.13-15.08a.96.93-49.8 0 1-.04-.6q2.34-9.22 7.99-16.74.34-.46-.23-.46l-8.49.1a.51.51 0 0 0-.23.96l2.62 1.37a1.44 1.44 0 0 1 .68 1.8l-3.75 9.52a.26.26 0 0 1-.48 0M374.69 162.94c-.03 3.51-1.79 10.65-6.78 5.69q-.78-.77-1.3.19-.99 1.83-.38 3.86.17.57.76.6c7.94.42 12.04-7.62 12.02-14.28q-.06-15.34-.14-30.69-.02-2.67 2.54-3.31.75-.18.78-1.04.02-.46-.45-.46h-12.27q-.75 0-.24.55l.62.68q.29.32.72.36 4.08.4 4.15 4.4.16 9.17-.03 33.45M478.97 126.22a2.65 2.62-85.5 0 1 1.1 1.3l14.5 35.99a.89.89 0 0 0 1.66 0l6.75-16.51a.41.41 0 0 1 .76 0l6.88 16.32a1.01 1.01 0 0 0 1.86.01q7.45-17.39 14.74-34.76c.76-1.8 2-2.99 3.37-4.27a.46.46 0 0 0-.32-.8h-8.76a.8.8 0 0 0-.28 1.54l2.74 1.04a.89.89 0 0 1 .57.92q-.12 1.14-.69 2.58-5.24 13.2-10.64 26.28-.61 1.48-1.21-.01l-6.07-15.06a1.12 1.12 0 0 1 0-.84q2.65-6.8 5.9-13.35a.57.57 0 0 1 .14-.19l2.25-2.25a.39.39 0 0 0-.28-.67l-8.42.03a.48.48 0 0 0-.25.89l2.82 1.79a1.05 1.04-63.1 0 1 .41 1.26l-3.66 9.25a.46.45 45.5 0 1-.85-.01c-.98-2.54-5.86-11-1.41-12.07a.57.57 0 0 0-.13-1.13h-11.7a.64.64 0 0 0-.18 1.26l3.87 1.14a.57.54-13 0 1 .24.14c2.65 2.66 5.73 12.76 7.27 16.69a.86.84 46.5 0 1-.01.65l-5.12 12.36q-.43 1.03-.85-.01l-11.5-28.55q-.27-.68.3-1.13l2.24-1.79a.43.43 0 0 0-.27-.76l-9.98.01a.63.63 0 0 0-.33 1.17l2.54 1.54M154.49 132.46l1.32-1.63a.81.81 0 0 0-.04-1.06l-2-2.17q-.39-.42-.84-.08-1.79 1.32-1.8 3.74a1.89 1.89 0 0 0 3.36 1.2M447.75 138.96v-3.91a.57.57 0 0 0-.99-.38l-5.62 6.23a.51.51 0 0 0 .37.85h1.51q.62 0 .59.62-.29 7.47-.06 14.95c.22 7.11 7.47 7.24 12.12 4.6q1.4-.8.73-1.63a.56.56 0 0 0-.73-.13c-4.39 2.64-8.05 1.55-7.95-3.81q.12-6.97-.03-14.02-.01-.58.57-.58h6.3a1.03 1.01 14.4 0 0 .89-.51l1.01-1.74q.49-.86-.47-.6-3.84 1.07-7.87.48-.37-.05-.37-.42M217.78 140.12a2.21 2.21 0 0 1-3.1.69c-9.6-6.36-21.19 3.41-12.75 13.5q.34.4-.04.75-3.73 3.44-1.05 7.99.29.5-.17.84c-11.34 8.4 12.43 15.82 18.08 4.53 1.68-3.38-.15-6.98-4.01-7.16-2.9-.13-11.19.38-12.7-2.29q-.23-.39-.14-.84.41-2.05 2.34-2.87a1.17 1.14 41.5 0 1 .78-.04c7.04 1.99 14.07-2.66 12.25-10.35q-.13-.56.35-.87 3.18-2.07 2.55-6.05a.51.51 0 0 0-.94-.19l-1.45 2.36M103.44 141.69q.66-1.54-.13-3.01-.17-.34-.52-.19l-6.99 3a.39.39 0 0 0 .06.74l2.57.63a1.42 1.41 7.1 0 1 1.07 1.37v15.61q0 .5-.42.76l-2.35 1.46a.4.4 0 0 0 .21.74l11.29.14q.49 0 .49-.49v-.27a.18.18 0 0 0-.13-.17l-4.15-1.24a.87.87 0 0 1-.62-.76c-.34-4.02-2.08-15.8 2.96-17.39q.51-.16 1.01.03l3.06 1.15a.69.68 27 0 0 .81-.26l1.19-1.76q.51-.76-.23-1.3-4.95-3.59-7.87 1.84a.73.73 0 0 1-1.31-.63M155.5 160.02v-20.75a.83.82-13.7 0 0-1.21-.73l-5.85 2.99a.53.53 0 0 0 .31 1c2.27-.3 2.73 1.16 2.75 3.12q.05 6.52 0 13.04-.02 2.55-2.18 3.29a.45.45 0 0 0 .14.87l10.09.08q.37 0 .42-.36l.04-.28q.04-.37-.31-.46l-3.47-.88a.96.96 0 0 1-.73-.93M189.54 159.97c-2.15-5.83 3.27-19.48-7.27-20.94q-5.79-.8-9.57 3.41a.45.44-13.7 0 1-.75-.45q.65-1.68-.11-3.3a.59.59 0 0 0-.85-.25q-3.14 1.96-6.7 2.88-.26.07-.26.34v.41q0 .55.54.47 1.76-.26 2.98.85a1.31 1.29 21.1 0 1 .44.97q.02 6.83.01 13.7c-.01 2.44-.9 3.58-3.23 4.01q-.14.03-.18.17-.05.13-.1.28a.28.28 0 0 0 .26.38l12.08-.01a.35.35 0 0 0 .33-.24l.09-.27a.38.37-71.8 0 0-.23-.46l-4.12-1.37q-.64-.21-.64-.89-.03-6.4 0-12.81c.03-5.52 7.28-6.91 10.54-3.97 3.49 3.16 2.64 13.12 2.11 17.37q-.06.47-.44.74l-1.54 1.08a.44.44 0 0 0 .25.8l10.07.03a.57.56-35.3 0 0 .19-1.1l-3.1-1.05a1.33 1.31 88.9 0 1-.8-.78M296.11 142.55l.19-3.37a.64.64 0 0 0-.89-.63l-6.73 2.86a.5.5 0 0 0 .06.94l2.84.84a.94.94 0 0 1 .67.9q.01 7.25-.01 14.53c0 1.94-.86 2.53-2.52 3.1q-.56.18-.46.8.05.31.37.32l11.11.06q.67.01.47-.64l-.09-.28a.59.59 0 0 0-.61-.41q-4.34.37-4.33-4.04c0-3.38-1.88-18.08 5.93-14.24 2.01.99 2.77.17 3.42-1.68a1.05 1.03-60.9 0 0-.32-1.16c-4.74-3.83-5.53.04-8.63 2.35q-.51.39-.47-.25M569.75 142.76v-3.55a.76.76 0 0 0-1.15-.66q-2.98 1.73-6.52 2.8-.2.06-.26.19-.08.14-.08.36a.44.44 0 0 0 .37.45l2.65.45a1.13 1.13 0 0 1 .94 1.11l-.03 16.2q0 .49-.45.71l-1.95.94a.68.68 0 0 0 .37 1.28q5.22-.58 10.39.07a.74.74 0 0 0 .42-1.39c-1.53-.76-4.64.16-4.68-2.72-.03-3.26-2.3-21.18 6.63-15.27a.94.94 0 0 0 1 .03q1.26-.75 1.6-2.23a1.01 1-60 0 0-.24-.91c-3.73-4.04-6.09-.31-8.47 2.35q-.54.6-.54-.21M90.85 151.19a12.37 12.37 0 0 0-12.37-12.37 12.37 12.37 0 0 0-12.37 12.37 12.37 12.37 0 0 0 12.37 12.37 12.37 12.37 0 0 0 12.37-12.37M283.54 151.19a12.38 12.38 0 0 0-12.38-12.38 12.38 12.38 0 0 0-12.38 12.38 12.38 12.38 0 0 0 12.38 12.38 12.38 12.38 0 0 0 12.38-12.38M557.02 151.19a12.38 12.38 0 0 0-12.38-12.38 12.38 12.38 0 0 0-12.38 12.38 12.38 12.38 0 0 0 12.38 12.38 12.38 12.38 0 0 0 12.38-12.38M341.2 160.63q2.06 3.21 5.97 2.29 1.15-.27 1.06-1.23-.06-.58-.63-.47c-7.63 1.46 2.05-20.29-7.69-21.88-5.56-.9-10.02-.67-13.14 3.73-1.52 2.16.83 4.7 3.13 3.58q.43-.21.37-.68l-.32-2.85a2.04 2.03-13.9 0 1 1.29-2.13q5.18-1.99 8.71 1.89a.96.93 24.1 0 1 .24.6l.15 4.72a1.49 1.48 85.8 0 1-1.32 1.53c-4.43.48-12.47 2.57-12.66 8.18-.29 8.5 10.25 5.25 14.44 2.63a.3.29 57.1 0 1 .4.09M430.52 154.48c7.19 4.47-8.07 13.67-9.33.46a.71.71 0 0 0-1.42.06v5.73q0 .68.66.86c1.99.54 3.84 1.66 5.67 1.86 6.35.72 11.21-6.34 7.7-11.66-1.97-3-7.36-3.8-9.76-5.85-4.29-3.65 4.75-9.62 8.15-1.65q.25.59.98.73a.56.55 2.5 0 0 .65-.59l-.33-3.88a.93.93 0 0 0-.62-.8c-3.7-1.27-9.5-1.68-11.69 2.43-3.79 7.14 5.08 9.66 9.34 12.3M407.75 160.51V163q0 .49.49.43l6.42-.78q.33-.03.34-.36v-.26a.41.41 0 0 0-.32-.4l-2.34-.54q-.59-.13-.59-.74v-20.04a.68.68 0 0 0-.76-.67l-6.2.73a.32.32 0 0 0-.29.32q0 .18-.01.37a.32.31-1.7 0 0 .35.32c2.02-.2 2.9.57 2.93 2.61q.08 6.76-.23 13.51-.03.49-.34.88c-2.85 3.48-8.19 4.81-10.38-.13-1.58-3.58-.54-13.65-.73-18.06a.51.51 0 0 0-.57-.49l-6.27.7q-.14.02-.19.15-.04.14-.09.29-.12.39.28.47l2.39.51a.78.78 0 0 1 .62.76q-.04 6.7.01 13.41c.07 8.66 9.98 9.2 14.96 4.3q.52-.52.52.22" vector-effect="non-scaling-stroke"/><path stroke="#80adc6" d="M375.52 43a.31.31 0 0 0-.57-.01l-7.59 17.13a.31.31 0 0 0 .25.44l15.41 1.37a.31.31 0 0 0 .31-.43L375.52 43M502.8 58.83q-.16.27.18.51a.48.48 0 0 0 .43.06c6.05-2.16 24.69-12.95 13.43-20.92q-6.7-4.74-15.25-5.24-.54-.03-.5.51l1.79 24.75q.01.17-.08.33M142.88 41.92c-2.4-5.55-12.82-8.23-18.21-8.79q-.42-.04-.39.38l1.51 25.51q.04.61.61.4c5.23-1.97 19.76-9.92 16.48-17.5M231.445 66.376a12.5 11.78 5.4 0 0-11.336-12.904 12.5 11.78 5.4 0 0-13.554 10.552 12.5 11.78 5.4 0 0 11.336 12.904 12.5 11.78 5.4 0 0 13.554-10.552" vector-effect="non-scaling-stroke"/><path stroke="gray" d="M607.97 141.23c-7.9 4.98-3.13 22.15 6.68 19.44q3.93-1.09 3.9-4.98c-.04-3.85.37-8.37-.17-10.76-1.01-4.53-7.21-5.73-10.41-3.7M209 154.44a7.18 5.58 84.8 0 0 4.907-7.656 7.18 5.58 84.8 0 0-6.208-6.644 7.18 5.58 84.8 0 0-4.906 7.656 7.18 5.58 84.8 0 0 6.208 6.644M214.58 164.82l-12.26-.38a1.91 1.91 0 0 0-1.97 1.85v.09a6.32 6.16 1.8 0 0 6.12 6.35l3.44.11a6.32 6.16 1.8 0 0 6.51-5.96v-.09a1.91 1.91 0 0 0-1.84-1.97M80.16 162.157a11.16 8.33 81.5 0 0 6.589-12.268 11.16 8.33 81.5 0 0-9.889-9.806 11.16 8.33 81.5 0 0-6.588 12.268 11.16 8.33 81.5 0 0 9.888 9.806M272.875 162.136a11.15 8.38 81.1 0 0 6.554-12.313 11.15 8.38 81.1 0 0-10.004-9.719 11.15 8.38 81.1 0 0-6.554 12.313 11.15 8.38 81.1 0 0 10.004 9.719M546.358 162.152a11.16 8.33 81.3 0 0 6.546-12.292 11.16 8.33 81.3 0 0-9.922-9.772 11.16 8.33 81.3 0 0-6.546 12.292 11.16 8.33 81.3 0 0 9.922 9.772M340.01 151.18c-15 .35-9.93 15.76-1.51 9.08 2.47-1.95 2.11-5.71 1.98-8.64q-.02-.45-.47-.44" vector-effect="non-scaling-stroke"/></g><path fill="#fff" d="M0 0h639v195H0V0Zm233.24 20.62 9.16 2.71 14.34 8.27q.47.28.79-.17l5.89-8.47a.69.68-53.2 0 0-.13-.93q-10.04-8.23-21.62-12.47l-13.71-3.07q-24.4-2.87-44.93 10.15-.42.26-.13.66l6.3 8.79q.29.4.72.15c12.57-7.54 29.28-7.9 43.32-5.62Zm85.09 80.63 33.35 1.3a.61.61 0 0 0 .6-.41l4.94-14.25q.22-.63.88-.62l29.74.11q.54 0 .73.51l5.04 13.78q.34.93 1.33.87c22.23-1.3 44.5-.75 66.75-.53q.5 0 .48-.5-1.84-45.73-.22-91.46.03-.63-.61-.63l-36.95.03q-1.39 0-1.3 1.39 2.42 37.7 2.18 75.47a.24.24 0 0 1-.46.11l-36.84-77.2a.85.84 77.1 0 0-.76-.48l-30.19.03q-.67 0-.91.62-12.66 33.28-26.78 65.96a.69.68 17.4 0 1-.78.4c-8.28-1.79-19.07-6.74-22.36-14.97-5.97-14.98 13.6-22.42 23.76-26.76q.5-.22.21-.67L314.07 7.47a.7.7 0 0 0-.79-.3c-23.56 7.18-56.82 26.76-50.49 56.86 4.85 23.11 32.53 36.1 52.96 41.26a.72.71-73.6 0 0 .86-.47l1-3.07q.17-.52.72-.5Zm187.62-27.43q8.96 15.95 21.89 28.98a1.32 1.29 63.8 0 0 1.07.38l30.22-3.72a.35.35 0 0 1 .37.46l-.53 1.53a.63.62 8.6 0 0 .62.83q30.99-1.13 61.9 1.41.42.03.54-.37l6.94-23.74q.16-.53-.4-.57l-27.4-1.52q-.77-.05-.75-.82l.32-8.38q.02-.46.48-.5 11.8-.91 23.52.69a.36.35 8.2 0 0 .4-.29l4.28-25.23q.11-.67-.56-.6-14.29 1.49-28.63.53-.78-.06-.75-.84l.35-8.23a.66.66 0 0 1 .59-.62q14.54-1.37 29.03.15.66.07.51-.57l-5.44-23.23q-.13-.58-.72-.58l-64.3-.27a.71.71 0 0 0-.7.82c4.7 28.04 3.19 59.24 1.06 87.52a.5.5 0 0 1-.88.28q-11.1-13.26-17.93-29.15a1.3 1.29 58.2 0 1 .35-1.5c8.03-6.79 22.99-19.04 16.28-31.3C550.52 22.3 538.06 9.55 522 9.51q-28.28-.07-55.84.31-1.19.02-1.05 1.2 5.19 45.01 3.47 90.31-.03.62.59.62l33.02.17q.56 0 .57-.56l.51-27.07a1.43 1.43 0 0 1 2.68-.67ZM88.03 18.28q.62-2.76.88.06 1.45 15.48 2.32 29.43c1.11 17.58.48 35.89.54 53.76q0 .42.42.43l32.66.29a.81.8-88.9 0 0 .81-.79l.73-27.2a1.32 1.31-59.1 0 1 2.46-.62q9.07 16.07 22.07 29.2.42.42 1 .35l30.86-3.8q.74-.09.28-.68c-8.1-10.27-14.55-19.24-18.99-31.18a.68.68 0 0 1 .2-.76q7.81-6.44 14.24-14.24a.24.24 0 0 1 .42.21c-5.2 20.63.96 43.94 22.71 51.17 7.98 2.65 17.49 2.77 26.11 1.77 17.42-2.02 30.25-13.09 32.21-31.19 4.12-37.89-22.75-52.24-56.46-44.25q-12.74 3.02-20.34 13.21-.64.86-.65-.21l-.03-3.24a.95.92-58 0 0-.08-.38c-5.44-13.08-19.57-30.11-35.15-30.12-24.96-.01-49.99-.35-74.94.35q-31.4.88-62.84-.55a.63.63 0 0 0-.65.49c-2.41 9.91-1.87 20.46-1.8 30.52a.68.67 87.7 0 0 .73.68l21.17-1.72q.63-.05.61.58l-1.97 61.45q-.02.7.68.7h36.44q.69 0 .66-.68l-2.38-60.83q-.03-.58.55-.56l19.5.84q.57.02.67-.54 1.89-11.03 4.35-21.95Zm36.13 132.02.13-28.22a.87.87 0 0 0-1.28-.77q-2.98 1.6-6.41 2.65-.37.11-.51.32-.19.3-.07.74a.6.59-12.2 0 0 .68.43c2.45-.45 3.31.74 3.31 3.06q-.01 15.61-.01 31.24 0 .62-.52.95l-2 1.24a.47.47 0 0 0 .24.87l10.3.1a.58.58 0 0 0 .2-1.13l-3.44-1.21a.79.79 0 0 1-.53-.76l.01-6.64a1.06 1.06 0 0 1 1.87-.69l8.61 10.04q.33.39.84.39l6.99.03q.3 0 .46-.26l.18-.31q.32-.54-.3-.61c-1.9-.21-3.71-.38-5.14-1.85q-4.62-4.79-8.71-10.08-.31-.41 0-.81 4.62-5.97 11.65-8.49a.52.51-55.2 0 0-.18-1l-9.57.15a.34.34 0 0 0-.16.64l1.93 1.12a.85.85 0 0 1 .15 1.36l-8.33 7.67q-.4.37-.39-.17Zm462.67 10.36-2.11 1.23a.49.49 0 0 0 .24.92l10.4.15q.43 0 .61-.38l.2-.42a.44.44 0 0 0-.41-.63q-2.14.08-3.84-1.18a1.07 1.05 19 0 1-.42-.84v-37.28a.83.83 0 0 0-1.15-.77l-6.71 2.81a.44.43-48.9 0 0 .05.82l2.94.76q.62.16.62.8v33.28a.85.83 75.3 0 1-.42.73Zm31.94-.4-.1 2.71a.58.58 0 0 0 .7.59q2.88-.64 5.8-.7.89-.02 1.07-.63.12-.41-.29-.53l-2.63-.72a.77.76-82.6 0 1-.57-.74v-38.15a.82.81-11.3 0 0-1.13-.75l-7.06 2.95a.43.43 0 0 0 .08.81l3.36.69q.62.13.63.77l.17 13.65q.01.57-.49.3c-11.55-6.37-21.27 6.64-16.45 17.01 3.26 7 10.86 7.72 16.39 2.5q.56-.53.52.24Zm-370.23-18.51h4.45q.52 0 .81-.43l1.11-1.68a.35.35 0 0 0-.32-.54l-5.68.53q-.63.06-.65-.57c-.22-6.12-.62-14.41 6.97-14.36a1.03 1.03 0 0 1 .77.37l1.43 1.74q.67.83.78-.23l.34-3.53q.06-.58-.48-.8-2.04-.84-3.55-.24c-7.12 2.82-10.1 9.48-10.5 16.99q-.03.5-.53.5h-2.74q-.5 0-.5.5v1.34a.55.54-2 0 0 .59.54l2.62-.18q.54-.03.54.51v17.86q0 .44-.38.65l-2.05 1.15a.53.53 0 0 0 .27.99l9.99-.16a.17.17 0 0 0 .17-.17q0-.14.01-.28.03-.59-.56-.58-3.46.02-3.32-3.66.28-7.92-.01-15.83-.01-.43.42-.43Zm-210.51-4.57q-1.74-4.41-3.47-8.93c-.65-1.68-.11-3 1.62-3.43a.67.67 0 0 0-.16-1.32H24.75a.69.68 66.9 0 0-.47 1.18c1.86 1.81 3.97-.42 5.6 3.56q2.91 7.07 5.87 14.21a1.42 1.39-45.6 0 1 0 1.09l-5 11.93a.54.54 0 0 1-1-.01l-11.39-28.15a1.65 1.64-14.3 0 1 1.34-2.25q.97-.12 1.38-.93a.44.44 0 0 0-.39-.63H10.56a.75.75 0 0 0-.22 1.46c3.2 1.02 3.74 3.02 4.89 5.89q6.56 16.4 13.03 32.29a1.08 1.07 44.9 0 0 1.99 0l6.68-16.4a.27.27 0 0 1 .5 0l7.05 16.74a.84.84 0 0 0 1.48.13q.37-.59.71-1.36 7.07-16.29 13.96-32.68c.97-2.3 1.94-3.61 3.7-5.28a.46.46 0 0 0-.32-.79H55a.66.66 0 0 0-.26 1.27l2.52 1.07a1.91 1.89-67.4 0 1 1.01 2.47l-11.43 28.01a.41.4 45.2 0 1-.75-.01l-6.13-15.08a.96.93-49.8 0 1-.04-.6q2.34-9.22 7.99-16.74.34-.46-.23-.46l-8.49.1a.51.51 0 0 0-.23.96l2.62 1.37a1.44 1.44 0 0 1 .68 1.8l-3.75 9.52a.26.26 0 0 1-.48 0Zm336.66 25.76c-.03 3.51-1.79 10.65-6.78 5.69q-.78-.77-1.3.19-.99 1.83-.38 3.86.17.57.76.6c7.94.42 12.04-7.62 12.02-14.28q-.06-15.34-.14-30.69-.02-2.67 2.54-3.31.75-.18.78-1.04.02-.46-.45-.46h-12.27q-.75 0-.24.55l.62.68q.29.32.72.36 4.08.4 4.15 4.4.16 9.17-.03 33.45Zm104.28-36.72a2.65 2.62-85.5 0 1 1.1 1.3l14.5 35.99a.89.89 0 0 0 1.66 0l6.75-16.51a.41.41 0 0 1 .76 0l6.88 16.32a1.01 1.01 0 0 0 1.86.01q7.45-17.39 14.74-34.76c.76-1.8 2-2.99 3.37-4.27a.46.46 0 0 0-.32-.8h-8.76a.8.8 0 0 0-.28 1.54l2.74 1.04a.89.89 0 0 1 .57.92q-.12 1.14-.69 2.58-5.24 13.2-10.64 26.28-.61 1.48-1.21-.01l-6.07-15.06a1.12 1.12 0 0 1 0-.84q2.65-6.8 5.9-13.35a.57.57 0 0 1 .14-.19l2.25-2.25a.39.39 0 0 0-.28-.67l-8.42.03a.48.48 0 0 0-.25.89l2.82 1.79a1.05 1.04-63.1 0 1 .41 1.26l-3.66 9.25a.46.45 45.5 0 1-.85-.01c-.98-2.54-5.86-11-1.41-12.07a.57.57 0 0 0-.13-1.13h-11.7a.64.64 0 0 0-.18 1.26l3.87 1.14a.57.54-13 0 1 .24.14c2.65 2.66 5.73 12.76 7.27 16.69a.86.84 46.5 0 1-.01.65l-5.12 12.36q-.43 1.03-.85-.01l-11.5-28.55q-.27-.68.3-1.13l2.24-1.79a.43.43 0 0 0-.27-.76l-9.98.01a.63.63 0 0 0-.33 1.17l2.54 1.54Zm-324.48 6.24 1.32-1.63a.81.81 0 0 0-.04-1.06l-2-2.17q-.39-.42-.84-.08-1.79 1.32-1.8 3.74a1.89 1.89 0 0 0 3.36 1.2Zm293.26 6.5v-3.91a.57.57 0 0 0-.99-.38l-5.62 6.23a.51.51 0 0 0 .37.85h1.51q.62 0 .59.62-.29 7.47-.06 14.95c.22 7.11 7.47 7.24 12.12 4.6q1.4-.8.73-1.63a.56.56 0 0 0-.73-.13c-4.39 2.64-8.05 1.55-7.95-3.81q.12-6.97-.03-14.02-.01-.58.57-.58h6.3a1.03 1.01 14.4 0 0 .89-.51l1.01-1.74q.49-.86-.47-.6-3.84 1.07-7.87.48-.37-.05-.37-.42Zm-229.97 1.16a2.21 2.21 0 0 1-3.1.69c-9.6-6.36-21.19 3.41-12.75 13.5q.34.4-.04.75-3.73 3.44-1.05 7.99.29.5-.17.84c-11.34 8.4 12.43 15.82 18.08 4.53 1.68-3.38-.15-6.98-4.01-7.16-2.9-.13-11.19.38-12.7-2.29q-.23-.39-.14-.84.41-2.05 2.34-2.87a1.17 1.14 41.5 0 1 .78-.04c7.04 1.99 14.07-2.66 12.25-10.35q-.13-.56.35-.87 3.18-2.07 2.55-6.05a.51.51 0 0 0-.94-.19l-1.45 2.36Zm-114.34 1.57q.66-1.54-.13-3.01-.17-.34-.52-.19l-6.99 3a.39.39 0 0 0 .06.74l2.57.63a1.42 1.41 7.1 0 1 1.07 1.37v15.61q0 .5-.42.76l-2.35 1.46a.4.4 0 0 0 .21.74l11.29.14q.49 0 .49-.49v-.27a.18.18 0 0 0-.13-.17l-4.15-1.24a.87.87 0 0 1-.62-.76c-.34-4.02-2.08-15.8 2.96-17.39q.51-.16 1.01.03l3.06 1.15a.69.68 27 0 0 .81-.26l1.19-1.76q.51-.76-.23-1.3-4.95-3.59-7.87 1.84a.73.73 0 0 1-1.31-.63Zm52.06 18.33v-20.75a.83.82-13.7 0 0-1.21-.73l-5.85 2.99a.53.53 0 0 0 .31 1c2.27-.3 2.73 1.16 2.75 3.12q.05 6.52 0 13.04-.02 2.55-2.18 3.29a.45.45 0 0 0 .14.87l10.09.08q.37 0 .42-.36l.04-.28q.04-.37-.31-.46l-3.47-.88a.96.96 0 0 1-.73-.93Zm34.04-.05c-2.15-5.83 3.27-19.48-7.27-20.94q-5.79-.8-9.57 3.41a.45.44-13.7 0 1-.75-.45q.65-1.68-.11-3.3a.59.59 0 0 0-.85-.25q-3.14 1.96-6.7 2.88-.26.07-.26.34v.41q0 .55.54.47 1.76-.26 2.98.85a1.31 1.29 21.1 0 1 .44.97q.02 6.83.01 13.7c-.01 2.44-.9 3.58-3.23 4.01q-.14.03-.18.17-.05.13-.1.28a.28.28 0 0 0 .26.38l12.08-.01a.35.35 0 0 0 .33-.24l.09-.27a.38.37-71.8 0 0-.23-.46l-4.12-1.37q-.64-.21-.64-.89-.03-6.4 0-12.81c.03-5.52 7.28-6.91 10.54-3.97 3.49 3.16 2.64 13.12 2.11 17.37q-.06.47-.44.74l-1.54 1.08a.44.44 0 0 0 .25.8l10.07.03a.57.56-35.3 0 0 .19-1.1l-3.1-1.05a1.33 1.31 88.9 0 1-.8-.78Zm106.57-17.42.19-3.37a.64.64 0 0 0-.89-.63l-6.73 2.86a.5.5 0 0 0 .06.94l2.84.84a.94.94 0 0 1 .67.9q.01 7.25-.01 14.53c0 1.94-.86 2.53-2.52 3.1q-.56.18-.46.8.05.31.37.32l11.11.06q.67.01.47-.64l-.09-.28a.59.59 0 0 0-.61-.41q-4.34.37-4.33-4.04c0-3.38-1.88-18.08 5.93-14.24 2.01.99 2.77.17 3.42-1.68a1.05 1.03-60.9 0 0-.32-1.16c-4.74-3.83-5.53.04-8.63 2.35q-.51.39-.47-.25Zm273.64.21v-3.55a.76.76 0 0 0-1.15-.66q-2.98 1.73-6.52 2.8-.2.06-.26.19-.08.14-.08.36a.44.44 0 0 0 .37.45l2.65.45a1.13 1.13 0 0 1 .94 1.11l-.03 16.2q0 .49-.45.71l-1.95.94a.68.68 0 0 0 .37 1.28q5.22-.58 10.39.07a.74.74 0 0 0 .42-1.39c-1.53-.76-4.64.16-4.68-2.72-.03-3.26-2.3-21.18 6.63-15.27a.94.94 0 0 0 1 .03q1.26-.75 1.6-2.23a1.01 1-60 0 0-.24-.91c-3.73-4.04-6.09-.31-8.47 2.35q-.54.6-.54-.21Zm-478.9 8.43a12.37 12.37 0 0 0-12.37-12.37 12.37 12.37 0 0 0-12.37 12.37 12.37 12.37 0 0 0 12.37 12.37 12.37 12.37 0 0 0 12.37-12.37Zm192.69 0a12.38 12.38 0 0 0-12.38-12.38 12.38 12.38 0 0 0-12.38 12.38 12.38 12.38 0 0 0 12.38 12.38 12.38 12.38 0 0 0 12.38-12.38Zm273.48 0a12.38 12.38 0 0 0-12.38-12.38 12.38 12.38 0 0 0-12.38 12.38 12.38 12.38 0 0 0 12.38 12.38 12.38 12.38 0 0 0 12.38-12.38Zm-215.82 9.44q2.06 3.21 5.97 2.29 1.15-.27 1.06-1.23-.06-.58-.63-.47c-7.63 1.46 2.05-20.29-7.69-21.88-5.56-.9-10.02-.67-13.14 3.73-1.52 2.16.83 4.7 3.13 3.58q.43-.21.37-.68l-.32-2.85a2.04 2.03-13.9 0 1 1.29-2.13q5.18-1.99 8.71 1.89a.96.93 24.1 0 1 .24.6l.15 4.72a1.49 1.48 85.8 0 1-1.32 1.53c-4.43.48-12.47 2.57-12.66 8.18-.29 8.5 10.25 5.25 14.44 2.63a.3.29 57.1 0 1 .4.09Zm89.32-6.15c7.19 4.47-8.07 13.67-9.33.46a.71.71 0 0 0-1.42.06v5.73q0 .68.66.86c1.99.54 3.84 1.66 5.67 1.86 6.35.72 11.21-6.34 7.7-11.66-1.97-3-7.36-3.8-9.76-5.85-4.29-3.65 4.75-9.62 8.15-1.65q.25.59.98.73a.56.55 2.5 0 0 .65-.59l-.33-3.88a.93.93 0 0 0-.62-.8c-3.7-1.27-9.5-1.68-11.69 2.43-3.79 7.14 5.08 9.66 9.34 12.3Zm-22.77 6.03V163q0 .49.49.43l6.42-.78q.33-.03.34-.36v-.26a.41.41 0 0 0-.32-.4l-2.34-.54q-.59-.13-.59-.74v-20.04a.68.68 0 0 0-.76-.67l-6.2.73a.32.32 0 0 0-.29.32q0 .18-.01.37a.32.31-1.7 0 0 .35.32c2.02-.2 2.9.57 2.93 2.61q.08 6.76-.23 13.51-.03.49-.34.88c-2.85 3.48-8.19 4.81-10.38-.13-1.58-3.58-.54-13.65-.73-18.06a.51.51 0 0 0-.57-.49l-6.27.7q-.14.02-.19.15-.04.14-.09.29-.12.39.28.47l2.39.51a.78.78 0 0 1 .62.76q-.04 6.7.01 13.41c.07 8.66 9.98 9.2 14.96 4.3q.52-.52.52.22Z"/><path fill="#970a42" d="m227.96 6.49-.14 11.7a.71.71 0 0 0 .67.72l3.85.27a.89.86 73.1 0 1 .67.37q.57.8.23 1.07c-14.04-2.28-30.75-1.92-43.32 5.62q-.43.25-.72-.15l-6.3-8.79q-.29-.4.13-.66 20.53-13.02 44.93-10.15Z"/><path fill="#ee4d25" d="m227.96 6.49 13.71 3.07q-1.59 5.36-1.63 10.85 0 .57.51.8l1.55.71a.66.65-75.4 0 1 .39.67l-.09.74-9.16-2.71q.34-.27-.23-1.07a.89.86 73.1 0 0-.67-.37l-3.85-.27a.71.71 0 0 1-.67-.72l.14-11.7Z"/><path fill="#015a8c" d="m317.61 101.75-1 3.07a.72.71-73.6 0 1-.86.47c-20.43-5.16-48.11-18.15-52.96-41.26-6.33-30.1 26.93-49.68 50.49-56.86a.7.7 0 0 1 .79.3l16.09 25.88q.29.45-.21.67c-10.16 4.34-29.73 11.78-23.76 26.76 3.29 8.23 14.08 13.18 22.36 14.97a.69.68 17.4 0 0 .78-.4q14.12-32.68 26.78-65.96.24-.62.91-.62l30.19-.03a.85.84 77.1 0 1 .76.48l36.84 77.2a.24.24 0 0 0 .46-.11q.24-37.77-2.18-75.47-.09-1.39 1.3-1.39l36.95-.03q.64 0 .61.63-1.62 45.73.22 91.46.02.5-.48.5c-22.25-.22-44.52-.77-66.75.53q-.99.06-1.33-.87l-5.04-13.78q-.19-.51-.73-.51l-29.74-.11q-.66-.01-.88.62l-4.94 14.25a.61.61 0 0 1-.6.41l-33.35-1.3q-.55-.02-.72.5ZM375.52 43a.31.31 0 0 0-.57-.01l-7.59 17.13a.31.31 0 0 0 .25.44l15.41 1.37a.31.31 0 0 0 .31-.43L375.52 43ZM505.95 73.82a1.43 1.43 0 0 0-2.68.67l-.51 27.07q-.01.56-.57.56l-33.02-.17q-.62 0-.59-.62 1.72-45.3-3.47-90.31-.14-1.18 1.05-1.2 27.56-.38 55.84-.31c16.06.04 28.52 12.79 35.68 25.86 6.71 12.26-8.25 24.51-16.28 31.3a1.3 1.29 58.2 0 0-.35 1.5q6.83 15.89 17.93 29.15a.5.5 0 0 0 .88-.28c2.13-28.28 3.64-59.48-1.06-87.52a.71.71 0 0 1 .7-.82l64.3.27q.59 0 .72.58l5.44 23.23q.15.64-.51.57-14.49-1.52-29.03-.15a.66.66 0 0 0-.59.62l-.35 8.23q-.03.78.75.84 14.34.96 28.63-.53.67-.07.56.6l-4.28 25.23a.36.35 8.2 0 1-.4.29q-11.72-1.6-23.52-.69-.46.04-.48.5l-.32 8.38q-.02.77.75.82l27.4 1.52q.56.04.4.57l-6.94 23.74q-.12.4-.54.37-30.91-2.54-61.9-1.41a.63.62 8.6 0 1-.62-.83l.53-1.53a.35.35 0 0 0-.37-.46l-30.22 3.72a1.32 1.29 63.8 0 1-1.07-.38q-12.93-13.03-21.89-28.98Zm-3.15-14.99q-.16.27.18.51a.48.48 0 0 0 .43.06c6.05-2.16 24.69-12.95 13.43-20.92q-6.7-4.74-15.25-5.24-.54-.03-.5.51l1.79 24.75q.01.17-.08.33Z"/><path fill="#015a8c" d="M88.03 18.28q-2.46 10.92-4.35 21.95-.1.56-.67.54l-19.5-.84q-.58-.02-.55.56l2.38 60.83q.03.68-.66.68H28.24q-.7 0-.68-.7l1.97-61.45q.02-.63-.61-.58L7.75 40.99a.68.67 87.7 0 1-.73-.68c-.07-10.06-.61-20.61 1.8-30.52a.63.63 0 0 1 .65-.49q31.44 1.43 62.84.55c24.95-.7 49.98-.36 74.94-.35 15.58.01 29.71 17.04 35.15 30.12a.95.92-58 0 1 .08.38l.03 3.24q.01 1.07.65.21 7.6-10.19 20.34-13.21c33.71-7.99 60.58 6.36 56.46 44.25-1.96 18.1-14.79 29.17-32.21 31.19-8.62 1-18.13.88-26.11-1.77-21.75-7.23-27.91-30.54-22.71-51.17a.24.24 0 0 0-.42-.21q-6.43 7.8-14.24 14.24a.68.68 0 0 0-.2.76c4.44 11.94 10.89 20.91 18.99 31.18q.46.59-.28.68l-30.86 3.8q-.58.07-1-.35-13-13.13-22.07-29.2a1.32 1.31-59.1 0 0-2.46.62l-.73 27.2a.81.8-88.9 0 1-.81.79l-32.66-.29q-.42-.01-.42-.43c-.06-17.87.57-36.18-.54-53.76q-.87-13.95-2.32-29.43-.26-2.82-.88-.06Zm54.85 23.64c-2.4-5.55-12.82-8.23-18.21-8.79q-.42-.04-.39.38l1.51 25.51q.04.61.61.4c5.23-1.97 19.76-9.92 16.48-17.5Zm88.565 24.456a12.5 11.78 5.4 0 0-11.336-12.904 12.5 11.78 5.4 0 0-13.554 10.552 12.5 11.78 5.4 0 0 11.336 12.904 12.5 11.78 5.4 0 0 13.554-10.552Z"/><path fill="#f9a11f" d="M241.67 9.56q11.58 4.24 21.62 12.47a.69.68-53.2 0 1 .13.93l-5.89 8.47q-.32.45-.79.17l-14.34-8.27.09-.74a.66.65-75.4 0 0-.39-.67l-1.55-.71q-.51-.23-.51-.8.04-5.49 1.63-10.85Z"/><path fill="#fff" d="M124.67 33.13c5.39.56 15.81 3.24 18.21 8.79 3.28 7.58-11.25 15.53-16.48 17.5q-.57.21-.61-.4l-1.51-25.51q-.03-.42.39-.38ZM502.88 58.5l-1.79-24.75q-.04-.54.5-.51 8.55.5 15.25 5.24c11.26 7.97-7.38 18.76-13.43 20.92a.48.48 0 0 1-.43-.06q-.34-.24-.18-.51.09-.16.08-.33ZM375.52 43l7.81 18.5a.31.31 0 0 1-.31.43l-15.41-1.37a.31.31 0 0 1-.25-.44l7.59-17.13a.31.31 0 0 1 .57.01Z"/><ellipse fill="#fff" rx="12.5" ry="11.78" transform="rotate(5.4 -581.781 2354.542)"/><path d="m124.55 150.47 8.33-7.67a.85.85 0 0 0-.15-1.36l-1.93-1.12a.34.34 0 0 1 .16-.64l9.57-.15a.52.51-55.2 0 1 .18 1q-7.03 2.52-11.65 8.49-.31.4 0 .81 4.09 5.29 8.71 10.08c1.43 1.47 3.24 1.64 5.14 1.85q.62.07.3.61l-.18.31q-.16.26-.46.26l-6.99-.03q-.51 0-.84-.39l-8.61-10.04a1.06 1.06 0 0 0-1.87.69l-.01 6.64a.79.79 0 0 0 .53.76l3.44 1.21a.58.58 0 0 1-.2 1.13l-10.3-.1a.47.47 0 0 1-.24-.87l2-1.24q.52-.33.52-.95 0-15.63.01-31.24c0-2.32-.86-3.51-3.31-3.06a.6.59-12.2 0 1-.68-.43q-.12-.44.07-.74.14-.21.51-.32 3.43-1.05 6.41-2.65a.87.87 0 0 1 1.28.77l-.13 28.22q-.01.54.39.17ZM587.25 159.93v-33.28q0-.64-.62-.8l-2.94-.76a.44.43-48.9 0 1-.05-.82l6.71-2.81a.83.83 0 0 1 1.15.77v37.28a1.07 1.05 19 0 0 .42.84q1.7 1.26 3.84 1.18a.44.44 0 0 1 .41.63l-.2.42q-.18.38-.61.38l-10.4-.15a.49.49 0 0 1-.24-.92l2.11-1.23a.85.83 75.3 0 0 .42-.73ZM618.25 160.02c-5.53 5.22-13.13 4.5-16.39-2.5-4.82-10.37 4.9-23.38 16.45-17.01q.5.27.49-.3l-.17-13.65q-.01-.64-.63-.77l-3.36-.69a.43.43 0 0 1-.08-.81l7.06-2.95a.82.81-11.3 0 1 1.13.75v38.15a.77.76-82.6 0 0 .57.74l2.63.72q.41.12.29.53-.18.61-1.07.63-2.92.06-5.8.7a.58.58 0 0 1-.7-.59l.1-2.71q.04-.77-.52-.24Zm-10.28-18.79c-7.9 4.98-3.13 22.15 6.68 19.44q3.93-1.09 3.9-4.98c-.04-3.85.37-8.37-.17-10.76-1.01-4.53-7.21-5.73-10.41-3.7ZM248.12 142.18q.29 7.91.01 15.83-.14 3.68 3.32 3.66.59-.01.56.58-.01.14-.01.28a.17.17 0 0 1-.17.17l-9.99.16a.53.53 0 0 1-.27-.99l2.05-1.15q.38-.21.38-.65v-17.86q0-.54-.54-.51l-2.62.18a.55.54-2 0 1-.59-.54V140q0-.5.5-.5h2.74q.5 0 .53-.5c.4-7.51 3.38-14.17 10.5-16.99q1.51-.6 3.55.24.54.22.48.8l-.34 3.53q-.11 1.06-.78.23l-1.43-1.74a1.03 1.03 0 0 0-.77-.37c-7.59-.05-7.19 8.24-6.97 14.36q.02.63.65.57l5.68-.53a.35.35 0 0 1 .32.54l-1.11 1.68q-.29.43-.81.43h-4.45q-.43 0-.42.43ZM38.03 137.18a.26.26 0 0 0 .48 0l3.75-9.52a1.44 1.44 0 0 0-.68-1.8l-2.62-1.37a.51.51 0 0 1 .23-.96l8.49-.1q.57 0 .23.46-5.65 7.52-7.99 16.74a.96.93-49.8 0 0 .04.6l6.13 15.08a.41.4 45.2 0 0 .75.01l11.43-28.01a1.91 1.89-67.4 0 0-1.01-2.47l-2.52-1.07a.66.66 0 0 1 .26-1.27h9.01a.46.46 0 0 1 .32.79c-1.76 1.67-2.73 2.98-3.7 5.28q-6.89 16.39-13.96 32.68-.34.77-.71 1.36a.84.84 0 0 1-1.48-.13l-7.05-16.74a.27.27 0 0 0-.5 0l-6.68 16.4a1.08 1.07 44.9 0 1-1.99 0q-6.47-15.89-13.03-32.29c-1.15-2.87-1.69-4.87-4.89-5.89a.75.75 0 0 1 .22-1.46h10.13a.44.44 0 0 1 .39.63q-.41.81-1.38.93a1.65 1.64-14.3 0 0-1.34 2.25l11.39 28.15a.54.54 0 0 0 1 .01l5-11.93a1.42 1.39-45.6 0 0 0-1.09q-2.96-7.14-5.87-14.21c-1.63-3.98-3.74-1.75-5.6-3.56a.69.68 66.9 0 1 .47-1.18h11.27a.67.67 0 0 1 .16 1.32c-1.73.43-2.27 1.75-1.62 3.43q1.73 4.52 3.47 8.93ZM374.69 162.94q.19-24.28.03-33.45-.07-4-4.15-4.4-.43-.04-.72-.36l-.62-.68q-.51-.55.24-.55h12.27q.47 0 .45.46-.03.86-.78 1.04-2.56.64-2.54 3.31.08 15.35.14 30.69c.02 6.66-4.08 14.7-12.02 14.28q-.59-.03-.76-.6-.61-2.03.38-3.86.52-.96 1.3-.19c4.99 4.96 6.75-2.18 6.78-5.69ZM478.97 126.22l-2.54-1.54a.63.63 0 0 1 .33-1.17l9.98-.01a.43.43 0 0 1 .27.76l-2.24 1.79q-.57.45-.3 1.13l11.5 28.55q.42 1.04.85.01l5.12-12.36a.86.84 46.5 0 0 .01-.65c-1.54-3.93-4.62-14.03-7.27-16.69a.57.54-13 0 0-.24-.14l-3.87-1.14a.64.64 0 0 1 .18-1.26h11.7a.57.57 0 0 1 .13 1.13c-4.45 1.07.43 9.53 1.41 12.07a.46.45 45.5 0 0 .85.01l3.66-9.25a1.05 1.04-63.1 0 0-.41-1.26l-2.82-1.79a.48.48 0 0 1 .25-.89l8.42-.03a.39.39 0 0 1 .28.67l-2.25 2.25a.57.57 0 0 0-.14.19q-3.25 6.55-5.9 13.35a1.12 1.12 0 0 0 0 .84l6.07 15.06q.6 1.49 1.21.01 5.4-13.08 10.64-26.28.57-1.44.69-2.58a.89.89 0 0 0-.57-.92l-2.74-1.04a.8.8 0 0 1 .28-1.54h8.76a.46.46 0 0 1 .32.8c-1.37 1.28-2.61 2.47-3.37 4.27q-7.29 17.37-14.74 34.76a1.01 1.01 0 0 1-1.86-.01L503.74 147a.41.41 0 0 0-.76 0l-6.75 16.51a.89.89 0 0 1-1.66 0l-14.5-35.99a2.65 2.62-85.5 0 0-1.1-1.3ZM154.49 132.46a1.89 1.89 0 0 1-3.36-1.2q.01-2.42 1.8-3.74.45-.34.84.08l2 2.17a.81.81 0 0 1 .04 1.06l-1.32 1.63ZM448.12 139.38q4.03.59 7.87-.48.96-.26.47.6l-1.01 1.74a1.03 1.01 14.4 0 1-.89.51h-6.3q-.58 0-.57.58.15 7.05.03 14.02c-.1 5.36 3.56 6.45 7.95 3.81a.56.56 0 0 1 .73.13q.67.83-.73 1.63c-4.65 2.64-11.9 2.51-12.12-4.6q-.23-7.48.06-14.95.03-.62-.59-.62h-1.51a.51.51 0 0 1-.37-.85l5.62-6.23a.57.57 0 0 1 .99.38v3.91q0 .37.37.42ZM217.78 140.12l1.45-2.36a.51.51 0 0 1 .94.19q.63 3.98-2.55 6.05-.48.31-.35.87c1.82 7.69-5.21 12.34-12.25 10.35a1.17 1.14 41.5 0 0-.78.04q-1.93.82-2.34 2.87-.09.45.14.84c1.51 2.67 9.8 2.16 12.7 2.29 3.86.18 5.69 3.78 4.01 7.16-5.65 11.29-29.42 3.87-18.08-4.53q.46-.34.17-.84-2.68-4.55 1.05-7.99.38-.35.04-.75c-8.44-10.09 3.15-19.86 12.75-13.5a2.21 2.21 0 0 0 3.1-.69ZM209 154.44a7.18 5.58 84.8 0 0 4.907-7.656 7.18 5.58 84.8 0 0-6.208-6.644 7.18 5.58 84.8 0 0-4.906 7.656 7.18 5.58 84.8 0 0 6.208 6.644Zm5.58 10.38-12.26-.38a1.91 1.91 0 0 0-1.97 1.85v.09a6.32 6.16 1.8 0 0 6.12 6.35l3.44.11a6.32 6.16 1.8 0 0 6.51-5.96v-.09a1.91 1.91 0 0 0-1.84-1.97ZM103.44 141.69a.73.73 0 0 0 1.31.63q2.92-5.43 7.87-1.84.74.54.23 1.3l-1.19 1.76a.69.68 27 0 1-.81.26l-3.06-1.15q-.5-.19-1.01-.03c-5.04 1.59-3.3 13.37-2.96 17.39a.87.87 0 0 0 .62.76l4.15 1.24a.18.18 0 0 1 .13.17v.27q0 .49-.49.49l-11.29-.14a.4.4 0 0 1-.21-.74l2.35-1.46q.42-.26.42-.76v-15.61a1.42 1.41 7.1 0 0-1.07-1.37l-2.57-.63a.39.39 0 0 1-.06-.74l6.99-3q.35-.15.52.19.79 1.47.13 3.01ZM156.23 160.95l3.47.88q.35.09.31.46l-.04.28q-.05.36-.42.36l-10.09-.08a.45.45 0 0 1-.14-.87q2.16-.74 2.18-3.29.05-6.52 0-13.04c-.02-1.96-.48-3.42-2.75-3.12a.53.53 0 0 1-.31-1l5.85-2.99a.83.82-13.7 0 1 1.21.73v20.75a.96.96 0 0 0 .73.93ZM190.34 160.75l3.1 1.05a.57.56-35.3 0 1-.19 1.1l-10.07-.03a.44.44 0 0 1-.25-.8l1.54-1.08q.38-.27.44-.74c.53-4.25 1.38-14.21-2.11-17.37-3.26-2.94-10.51-1.55-10.54 3.97q-.03 6.41 0 12.81 0 .68.64.89l4.12 1.37a.38.37-71.8 0 1 .23.46l-.09.27a.35.35 0 0 1-.33.24l-12.08.01a.28.28 0 0 1-.26-.38q.05-.15.1-.28.04-.14.18-.17c2.33-.43 3.22-1.57 3.23-4.01q.01-6.87-.01-13.7a1.31 1.29 21.1 0 0-.44-.97q-1.22-1.11-2.98-.85-.54.08-.54-.47v-.41q0-.27.26-.34 3.56-.92 6.7-2.88a.59.59 0 0 1 .85.25q.76 1.62.11 3.3a.45.44-13.7 0 0 .75.45q3.78-4.21 9.57-3.41c10.54 1.46 5.12 15.11 7.27 20.94a1.33 1.31 88.9 0 0 .8.78ZM296.58 142.8c3.1-2.31 3.89-6.18 8.63-2.35a1.05 1.03-60.9 0 1 .32 1.16c-.65 1.85-1.41 2.67-3.42 1.68-7.81-3.84-5.93 10.86-5.93 14.24q-.01 4.41 4.33 4.04a.59.59 0 0 1 .61.41l.09.28q.2.65-.47.64l-11.11-.06q-.32-.01-.37-.32-.1-.62.46-.8c1.66-.57 2.52-1.16 2.52-3.1q.02-7.28.01-14.53a.94.94 0 0 0-.67-.9l-2.84-.84a.5.5 0 0 1-.06-.94l6.73-2.86a.64.64 0 0 1 .89.63l-.19 3.37q-.04.64.47.25ZM570.29 142.97c2.38-2.66 4.74-6.39 8.47-2.35a1.01 1-60 0 1 .24.91q-.34 1.48-1.6 2.23a.94.94 0 0 1-1-.03c-8.93-5.91-6.66 12.01-6.63 15.27.04 2.88 3.15 1.96 4.68 2.72a.74.74 0 0 1-.42 1.39q-5.17-.65-10.39-.07a.68.68 0 0 1-.37-1.28l1.95-.94q.45-.22.45-.71l.03-16.2a1.13 1.13 0 0 0-.94-1.11l-2.65-.45a.44.44 0 0 1-.37-.45q0-.22.08-.36.06-.13.26-.19 3.54-1.07 6.52-2.8a.76.76 0 0 1 1.15.66v3.55q0 .81.54.21ZM90.85 151.19a12.37 12.37 0 0 1-12.37 12.37 12.37 12.37 0 0 1-12.37-12.37 12.37 12.37 0 0 1 12.37-12.37 12.37 12.37 0 0 1 12.37 12.37Zm-10.69 10.967a11.16 8.33 81.5 0 0 6.589-12.268 11.16 8.33 81.5 0 0-9.889-9.806 11.16 8.33 81.5 0 0-6.588 12.268 11.16 8.33 81.5 0 0 9.888 9.806ZM283.54 151.19a12.38 12.38 0 0 1-12.38 12.38 12.38 12.38 0 0 1-12.38-12.38 12.38 12.38 0 0 1 12.38-12.38 12.38 12.38 0 0 1 12.38 12.38Zm-10.665 10.946a11.15 8.38 81.1 0 0 6.554-12.313 11.15 8.38 81.1 0 0-10.004-9.719 11.15 8.38 81.1 0 0-6.554 12.313 11.15 8.38 81.1 0 0 10.004 9.719ZM557.02 151.19a12.38 12.38 0 0 1-12.38 12.38 12.38 12.38 0 0 1-12.38-12.38 12.38 12.38 0 0 1 12.38-12.38 12.38 12.38 0 0 1 12.38 12.38Zm-10.662 10.962a11.16 8.33 81.3 0 0 6.546-12.292 11.16 8.33 81.3 0 0-9.922-9.772 11.16 8.33 81.3 0 0-6.546 12.292 11.16 8.33 81.3 0 0 9.922 9.772ZM341.2 160.63a.3.29 57.1 0 0-.4-.09c-4.19 2.62-14.73 5.87-14.44-2.63.19-5.61 8.23-7.7 12.66-8.18a1.49 1.48 85.8 0 0 1.32-1.53l-.15-4.72a.96.93 24.1 0 0-.24-.6q-3.53-3.88-8.71-1.89a2.04 2.03-13.9 0 0-1.29 2.13l.32 2.85q.06.47-.37.68c-2.3 1.12-4.65-1.42-3.13-3.58 3.12-4.4 7.58-4.63 13.14-3.73 9.74 1.59.06 23.34 7.69 21.88q.57-.11.63.47.09.96-1.06 1.23-3.91.92-5.97-2.29Zm-1.19-9.45c-15 .35-9.93 15.76-1.51 9.08 2.47-1.95 2.11-5.71 1.98-8.64q-.02-.45-.47-.44ZM430.52 154.48c-4.26-2.64-13.13-5.16-9.34-12.3 2.19-4.11 7.99-3.7 11.69-2.43a.93.93 0 0 1 .62.8l.33 3.88a.56.55 2.5 0 1-.65.59q-.73-.14-.98-.73c-3.4-7.97-12.44-2-8.15 1.65 2.4 2.05 7.79 2.85 9.76 5.85 3.51 5.32-1.35 12.38-7.7 11.66-1.83-.2-3.68-1.32-5.67-1.86q-.66-.18-.66-.86V155a.71.71 0 0 1 1.42-.06c1.26 13.21 16.52 4.01 9.33-.46ZM407.23 160.29c-4.98 4.9-14.89 4.36-14.96-4.3q-.05-6.71-.01-13.41a.78.78 0 0 0-.62-.76l-2.39-.51q-.4-.08-.28-.47.05-.15.09-.29.05-.13.19-.15l6.27-.7a.51.51 0 0 1 .57.49c.19 4.41-.85 14.48.73 18.06 2.19 4.94 7.53 3.61 10.38.13q.31-.39.34-.88.31-6.75.23-13.51c-.03-2.04-.91-2.81-2.93-2.61a.32.31-1.7 0 1-.35-.32q.01-.19.01-.37a.32.32 0 0 1 .29-.32l6.2-.73a.68.68 0 0 1 .76.67v20.04q0 .61.59.74l2.34.54a.41.41 0 0 1 .32.4v.26q-.01.33-.34.36l-6.42.78q-.49.06-.49-.43v-2.49q0-.74-.52-.22Z"/><ellipse fill="#fff" rx="11.16" ry="8.33" transform="rotate(81.5 -48.437 121.118)"/><ellipse fill="#fff" rx="7.18" ry="5.58" transform="rotate(84.8 23.523 187.731)"/><ellipse fill="#fff" rx="11.15" ry="8.38" transform="rotate(81.1 47.262 234.018)"/><ellipse fill="#fff" rx="11.16" ry="8.33" transform="rotate(81.3 184.333 392.738)"/><path fill="#fff" d="M607.97 141.23c3.2-2.03 9.4-.83 10.41 3.7.54 2.39.13 6.91.17 10.76q.03 3.89-3.9 4.98c-9.81 2.71-14.58-14.46-6.68-19.44ZM338.5 160.26c-8.42 6.68-13.49-8.73 1.51-9.08q.45-.01.47.44c.13 2.93.49 6.69-1.98 8.64ZM214.58 164.82a1.91 1.91 0 0 1 1.84 1.97v.09a6.32 6.16 1.8 0 1-6.51 5.96l-3.44-.11a6.32 6.16 1.8 0 1-6.12-6.35v-.09a1.91 1.91 0 0 1 1.97-1.85l12.26.38Z"/></svg>