<svg id="Layer_1" data-name="Layer 1" xmlns="http://www.w3.org/2000/svg" viewBox="0 0 280 300"><defs><style>.cls-1{fill:#fff;}.cls-2,.cls-3{fill:#002e6d;}.cls-3{fill-rule:evenodd;}.cls-4{fill:#c10230;}</style></defs><title>usaid logo</title><path class="cls-1" d="M63.43,150A22.77,22.77,0,1,1,86.2,172.77,22.78,22.78,0,0,1,63.43,150"/><path class="cls-1" d="M86.2,168.15A18.15,18.15,0,1,0,68.05,150,18.16,18.16,0,0,0,86.2,168.15"/><path class="cls-2" d="M136.22,135.16v12.45c0,7.28-4.95,9.79-11,9.79-6.38,0-11-3-11-9.75V135.16h5.47v12.62c0,3.15,2.29,5.05,5.44,5.05,2.9,0,5.57-1.51,5.57-5.44V135.16Z"/><path class="cls-2" d="M155.38,140.86c-3.19-1.42-5.09-2-7-2s-3.22.71-3.22,1.8c0,3.32,11.17,2.39,11.17,10.05,0,4.21-3.54,6.66-8.43,6.66a15,15,0,0,1-7.92-2.12v-4.74c3.15,2.1,5.09,2.84,7.5,2.84,2.09,0,3.22-.74,3.22-2,0-3.61-11.17-2.29-11.17-10.17,0-3.8,3.28-6.31,8.37-6.31a18,18,0,0,1,7.44,1.7Z"/><polygon class="cls-2" points="117.08 162.52 115.03 162.52 115.03 163.97 117.08 163.97 117.08 164.65 115.03 164.65 115.03 167.09 114.28 167.09 114.28 161.84 117.08 161.84 117.08 162.52"/><path class="cls-2" d="M119.21,161.85c1.06,0,1.73.56,1.73,1.46a1.32,1.32,0,0,1-.88,1.29,4.22,4.22,0,0,1,1.17,1.45c.22.36.35.54.71,1H121l-.69-1.08c-.69-1.07-1-1.2-1.39-1.2h-.32v2.28h-.75v-5.24Zm-.57,2.29h.49c.81,0,1-.42,1-.86s-.3-.79-1-.79h-.49Z"/><path class="cls-2" d="M124.56,161.78a2.69,2.69,0,1,1-2.81,2.69,2.68,2.68,0,0,1,2.81-2.69m0,4.69a2,2,0,1,0,0-4,2,2,0,1,0,0,4"/><polygon class="cls-2" points="133.03 167.09 132.28 167.09 132.28 163.01 132.26 163.01 130.65 165.04 130.52 165.04 128.91 163.01 128.89 163.01 128.89 167.09 128.14 167.09 128.14 161.84 128.85 161.84 130.58 164 132.33 161.84 133.03 161.84 133.03 167.09"/><polygon class="cls-2" points="140 162.52 138.19 162.52 138.19 167.09 137.43 167.09 137.43 162.52 135.62 162.52 135.62 161.84 140 161.84 140 162.52"/><polygon class="cls-2" points="145.08 167.09 144.32 167.09 144.32 164.81 141.38 164.81 141.38 167.09 140.63 167.09 140.63 161.84 141.38 161.84 141.38 164.13 144.32 164.13 144.32 161.84 145.08 161.84 145.08 167.09"/><polygon class="cls-2" points="149.2 162.52 146.97 162.52 146.97 164.11 149.12 164.11 149.12 164.78 146.97 164.78 146.97 166.41 149.27 166.41 149.27 167.09 146.22 167.09 146.22 161.84 149.2 161.84 149.2 162.52"/><path class="cls-2" d="M156.64,167.09h-.77l-.7-1.54h-2.23l-.66,1.54h-.77l2.25-5.28h.53Zm-3.41-2.22h1.63L154,163Z"/><polygon class="cls-2" points="162.01 167.09 161.26 167.09 161.26 163.01 161.25 163.01 159.63 165.04 159.51 165.04 157.89 163.01 157.88 163.01 157.88 167.09 157.12 167.09 157.12 161.84 157.83 161.84 159.57 164 161.31 161.84 162.01 161.84 162.01 167.09"/><polygon class="cls-2" points="166.1 162.52 163.88 162.52 163.88 164.11 166.03 164.11 166.03 164.78 163.88 164.78 163.88 166.41 166.17 166.41 166.17 167.09 163.13 167.09 163.13 161.84 166.1 161.84 166.1 162.52"/><path class="cls-2" d="M168.31,161.85c1.06,0,1.72.56,1.72,1.46a1.31,1.31,0,0,1-.87,1.29,4.32,4.32,0,0,1,1.16,1.45c.23.36.36.54.72,1h-.9l-.69-1.08c-.7-1.07-1-1.2-1.4-1.2h-.31v2.28H167v-5.24Zm-.57,2.29h.48c.81,0,1-.42,1-.86s-.29-.79-1-.79h-.48Z"/><rect class="cls-2" x="171.39" y="161.84" width="0.75" height="5.25"/><path class="cls-2" d="M177.62,163a3.52,3.52,0,0,0-1.81-.54,2,2,0,0,0-2.09,2,2,2,0,0,0,2.12,2,3.44,3.44,0,0,0,1.83-.59v.82a3.8,3.8,0,0,1-1.9.46,2.68,2.68,0,0,1-2.83-2.61,2.73,2.73,0,0,1,2.88-2.77,4.53,4.53,0,0,1,1.8.43Z"/><path class="cls-2" d="M183.06,167.09h-.77l-.7-1.54h-2.23l-.67,1.54h-.77l2.26-5.28h.53Zm-3.41-2.22h1.63l-.85-1.9Z"/><polygon class="cls-2" points="188.41 167.09 187.76 167.09 184.25 163.05 184.25 167.09 183.54 167.09 183.54 161.84 184.15 161.84 187.7 165.91 187.7 161.84 188.41 161.84 188.41 167.09"/><path class="cls-2" d="M193.49,161.85a1.47,1.47,0,0,1,1.67,1.5c0,.83-.56,1.47-1.77,1.47h-.79v2.27h-.75v-5.24Zm-.89,2.29h.86c.56,0,.92-.29.92-.82a.78.78,0,0,0-.89-.8h-.89Z"/><polygon class="cls-2" points="198.78 162.52 196.56 162.52 196.56 164.11 198.71 164.11 198.71 164.78 196.56 164.78 196.56 166.41 198.85 166.41 198.85 167.09 195.81 167.09 195.81 161.84 198.78 161.84 198.78 162.52"/><path class="cls-2" d="M202.24,161.78a2.69,2.69,0,1,1-2.82,2.69,2.67,2.67,0,0,1,2.82-2.69m0,4.69a2,2,0,1,0-2-2,2,2,0,0,0,2,2"/><path class="cls-2" d="M207.43,161.85a1.46,1.46,0,0,1,1.66,1.5c0,.83-.55,1.47-1.76,1.47h-.79v2.27h-.75v-5.24Zm-.89,2.29h.85c.57,0,.93-.29.93-.82a.78.78,0,0,0-.89-.8h-.89Z"/><polygon class="cls-2" points="210.49 166.41 212.86 166.41 212.86 167.09 209.74 167.09 209.74 161.84 210.49 161.84 210.49 166.41"/><polygon class="cls-2" points="216.41 162.52 214.19 162.52 214.19 164.11 216.34 164.11 216.34 164.78 214.19 164.78 214.19 166.41 216.48 166.41 216.48 167.09 213.44 167.09 213.44 161.84 216.41 161.84 216.41 162.52"/><path class="cls-2" d="M63.24,150a23,23,0,1,0,23-23,23,23,0,0,0-23,23m.38,0A22.58,22.58,0,1,1,86.2,172.58,22.6,22.6,0,0,1,63.62,150"/><path class="cls-2" d="M67.86,150A18.34,18.34,0,1,0,86.2,131.66,18.36,18.36,0,0,0,67.86,150m.38,0a18,18,0,1,1,18,18,18,18,0,0,1-18-18"/><rect class="cls-2" x="75.76" y="156.48" width="20.98" height="3.29"/><rect class="cls-2" x="75.75" y="137.39" width="20.98" height="6.08"/><rect class="cls-2" x="75.75" y="137.39" width="20.98" height="6.08"/><polygon class="cls-2" points="106.67 146.3 106.67 147.17 106.15 146.47 105.32 146.74 105.83 146.04 105.32 145.35 106.15 145.63 106.67 144.93 106.67 145.78 107.47 146.05 106.67 146.3"/><polygon class="cls-2" points="65.58 145.79 65.58 144.93 66.1 145.62 66.93 145.35 66.42 146.04 66.93 146.74 66.1 146.47 65.58 147.16 65.58 146.3 64.77 146.04 65.58 145.79"/><path class="cls-2" d="M67.23,139.27l1.27.63a1.26,1.26,0,0,1-1.1,2.24l-1.28-.63.28-.55,1.29.63a.62.62,0,0,0,.51-1.14L67,139.83Z"/><polygon class="cls-2" points="71.15 137.92 70.85 138.35 68.75 138.56 70.06 139.48 69.7 140 67.65 138.56 67.98 138.09 70 137.88 68.75 137 69.11 136.49 71.15 137.92"/><rect class="cls-2" x="70.46" y="135.24" width="0.62" height="2.5" transform="translate(-78.52 99.75) rotate(-48.77)"/><polygon class="cls-2" points="72.5 133.65 71.84 134.27 73.24 135.76 72.78 136.19 71.39 134.7 70.72 135.32 70.41 134.99 72.19 133.32 72.5 133.65"/><polygon class="cls-2" points="75.64 133.87 74.15 134.96 72.67 132.94 74.14 131.87 74.41 132.24 73.45 132.94 73.75 133.37 74.68 132.69 74.95 133.06 74.03 133.74 74.38 134.22 75.37 133.5 75.64 133.87"/><path class="cls-2" d="M75.73,130.93a1.24,1.24,0,0,1,1.82.44c.34.63.19,1.31-.68,1.79l-.91.49-1.2-2.2Zm.56,2,.35-.19a.74.74,0,0,0,.34-1.09.74.74,0,0,0-1.1-.3l-.35.19Z"/><path class="cls-2" d="M80.43,129.68a2,2,0,0,0-.82,0c-.22.07-.33.19-.29.31.12.36,1.3-.14,1.57.69.15.46-.15.85-.68,1a1.6,1.6,0,0,1-.93.05l-.17-.51a1.38,1.38,0,0,0,.91,0c.23-.07.32-.19.28-.33-.13-.39-1.29.15-1.57-.71-.14-.41.13-.8.68-1a2.19,2.19,0,0,1,.87-.08Z"/><polygon class="cls-2" points="83.27 128.87 82.38 129.05 82.77 131.05 82.16 131.17 81.77 129.17 80.88 129.34 80.79 128.89 83.18 128.42 83.27 128.87"/><path class="cls-2" d="M86.1,130.7l-.67.05-.25-.48-1.11.09-.15.51-.66,0,.81-2.57.72-.06Zm-1.61-1.79-.29,1,.77-.06Z"/><polygon class="cls-2" points="88.23 128.77 87.33 128.73 87.25 130.77 86.63 130.75 86.7 128.71 85.8 128.68 85.82 128.22 88.25 128.31 88.23 128.77"/><polygon class="cls-2" points="90.28 131.16 88.46 130.86 88.86 128.39 90.66 128.68 90.58 129.14 89.4 128.94 89.32 129.46 90.44 129.64 90.37 130.1 89.24 129.91 89.15 130.51 90.35 130.7 90.28 131.16"/><path class="cls-2" d="M92.79,129.93a1.8,1.8,0,0,0-.7-.43c-.21-.06-.37,0-.41.09-.1.37,1.15.61.91,1.45-.13.46-.59.62-1.13.47a1.74,1.74,0,0,1-.8-.48l.15-.52a1.49,1.49,0,0,0,.73.55c.23.06.38,0,.42-.13.11-.39-1.16-.59-.91-1.46.12-.41.56-.59,1.11-.43a2.1,2.1,0,0,1,.77.42Z"/><path class="cls-2" d="M95.65,133.16l-.61-.28,0-.54-1-.47-.38.37-.6-.28,2-1.84.65.3Zm-.52-2.34-.74.72.69.33Z"/><path class="cls-2" d="M98.66,133a2.2,2.2,0,0,0-.65-.7.8.8,0,0,0-1.2.16.76.76,0,0,0,.32,1.09,1,1,0,0,0,.39.15l.16-.24-.3-.2.25-.39.83.54-.56.86a1.67,1.67,0,0,1-1.07-.29,1.3,1.3,0,1,1,1.42-2.15,2.41,2.41,0,0,1,.71.72Z"/><polygon class="cls-2" points="99.49 136.03 98.09 134.83 99.72 132.94 101.1 134.12 100.8 134.47 99.89 133.69 99.55 134.09 100.42 134.83 100.12 135.18 99.25 134.44 98.86 134.89 99.79 135.69 99.49 136.03"/><polygon class="cls-2" points="101.46 138.19 101.11 137.8 101.4 135.7 100.2 136.76 99.78 136.3 101.66 134.64 102.03 135.07 101.77 137.08 102.92 136.07 103.33 136.54 101.46 138.19"/><path class="cls-2" d="M103.19,140.41a2,2,0,0,1-.75-.69,1.31,1.31,0,0,1,.28-1.92,1.36,1.36,0,0,1,1.9.56,1.74,1.74,0,0,1,.31.88l-.47.3a1.72,1.72,0,0,0-.25-.86.77.77,0,1,0-1.29.82,2,2,0,0,0,.73.61Z"/><polygon class="cls-2" points="104.55 141.03 105.34 139.57 105.66 140.25 105.18 141.08 106.12 141.24 106.44 141.92 104.82 141.59 103.76 142.09 103.49 141.53 104.55 141.03"/><rect class="cls-2" x="64.51" y="150.5" width="2.5" height="0.62" transform="translate(-5.7 2.62) rotate(-2.19)"/><polygon class="cls-2" points="64.91 154.44 64.83 153.92 66.22 152.32 64.63 152.55 64.54 151.94 67.02 151.57 67.1 152.14 65.78 153.68 67.29 153.46 67.38 154.08 64.91 154.44"/><polygon class="cls-2" points="67.7 156.8 67.44 155.93 65.48 156.51 65.31 155.92 67.26 155.33 67 154.47 67.44 154.33 68.14 156.67 67.7 156.8"/><polygon class="cls-2" points="66.71 159.62 65.97 157.93 68.26 156.92 68.99 158.59 68.57 158.77 68.09 157.68 67.61 157.89 68.07 158.93 67.65 159.12 67.19 158.08 66.64 158.32 67.13 159.44 66.71 159.62"/><path class="cls-2" d="M69.74,159.91a.74.74,0,0,1-.2,1.07.64.64,0,0,1-.74-.06c0,.29-.21.51-.66,1.19l-.35-.59c.32-.5.69-.83.51-1.12l-.09-.16-.87.52-.32-.54L69.17,159Zm-1.13.1.17.28a.29.29,0,0,0,.42.15q.24-.15.06-.45l-.16-.27Z"/><polygon class="cls-2" points="70.02 164.52 69.69 164.11 70.08 162.03 68.83 163.03 68.44 162.55 70.39 160.99 70.75 161.43 70.39 163.43 71.58 162.48 71.97 162.96 70.02 164.52"/><path class="cls-2" d="M72.46,166.87l-.49-.46.18-.5-.82-.77-.47.24-.48-.45,2.44-1.14.53.49Zm.22-2.39-.93.46.57.52Z"/><polygon class="cls-2" points="75.54 166.57 74.81 166.03 73.6 167.68 73.09 167.31 74.31 165.66 73.58 165.13 73.85 164.76 75.81 166.2 75.54 166.57"/><rect class="cls-2" x="74.48" y="167.27" width="2.5" height="0.62" transform="translate(-106.98 146.75) rotate(-59.18)"/><path class="cls-2" d="M77.2,169.8a1.29,1.29,0,1,1,1.83-.58,1.33,1.33,0,0,1-1.83.58m.85-1.87a.74.74,0,0,0-1,.37.73.73,0,0,0,.4,1,.77.77,0,1,0,.64-1.39"/><polygon class="cls-2" points="81.64 171.27 81.13 171.13 80.22 169.21 79.8 170.76 79.2 170.59 79.86 168.18 80.41 168.34 81.3 170.16 81.7 168.69 82.3 168.85 81.64 171.27"/><path class="cls-2" d="M85,171.72l-.66-.08-.15-.51L83.07,171l-.24.47-.66-.08,1.3-2.36.72.09Zm-1.22-2.06-.48.92.76.09Z"/><polygon class="cls-2" points="87.41 171.7 85.5 171.71 85.49 169.21 86.11 169.21 86.12 171.25 87.41 171.24 87.41 171.7"/><path class="cls-2" d="M89.7,168.9a1.24,1.24,0,0,1,1.58,1c.13.71-.22,1.31-1.2,1.49l-1,.19-.45-2.46Zm-.11,2.1.4-.08a.79.79,0,1,0-.29-1.55l-.39.07Z"/><polygon class="cls-2" points="93.92 170.35 92.17 170.92 91.4 168.54 93.13 167.98 93.27 168.42 92.13 168.78 92.29 169.28 93.38 168.93 93.52 169.37 92.43 169.72 92.62 170.29 93.78 169.91 93.92 170.35"/><polygon class="cls-2" points="95.66 169.63 95.42 169.74 93.25 167.96 93.86 167.67 95.07 168.68 95.03 167.13 95.64 166.84 95.66 169.63"/><polygon class="cls-2" points="98.68 167.86 97.12 168.84 95.78 166.73 97.32 165.76 97.57 166.15 96.56 166.78 96.84 167.23 97.8 166.62 98.05 167.01 97.08 167.62 97.4 168.12 98.44 167.47 98.68 167.86"/><polygon class="cls-2" points="100.71 166.27 99.22 167.47 97.65 165.52 98.14 165.13 99.42 166.72 100.42 165.91 100.71 166.27"/><path class="cls-2" d="M102.08,164.94a1.29,1.29,0,1,1,0-1.92,1.34,1.34,0,0,1,0,1.92m-1.49-1.4a.73.73,0,0,0,0,1.1.74.74,0,0,0,1.1,0,.73.73,0,0,0,0-1.1.73.73,0,0,0-1.09,0"/><path class="cls-2" d="M102.05,161a.75.75,0,1,1,1.23.86l-.29.4.83.58-.36.51-2-1.44Zm.57,1,.17-.24c.16-.23.14-.38,0-.48s-.3-.07-.5.21l-.12.17Z"/><polygon class="cls-2" points="103.69 158.09 103.93 157.61 106.16 158.74 105.88 159.29 104.49 158.59 104.88 159.54 104.84 159.63 103.83 159.88 105.23 160.58 104.94 161.14 102.71 160.01 102.96 159.52 104.15 159.23 103.69 158.09"/><polygon class="cls-2" points="107.04 156.25 106.44 157.99 104.08 157.18 104.67 155.46 105.1 155.61 104.71 156.74 105.21 156.91 105.58 155.83 106.01 155.98 105.64 157.06 106.21 157.25 106.61 156.1 107.04 156.25"/><polygon class="cls-2" points="107.73 153.08 107.63 153.6 105.79 154.64 107.36 154.95 107.25 155.56 104.79 155.08 104.9 154.52 106.66 153.51 105.16 153.21 105.28 152.6 107.73 153.08"/><polygon class="cls-2" points="105.9 149.92 105.85 150.82 107.89 150.94 107.86 151.56 105.82 151.45 105.77 152.35 105.31 152.33 105.44 149.9 105.9 149.92"/><path class="cls-3" d="M82.93,152.1l-.05-.06h0l0,0,0,0s0,0,0,0,0,0,0,0a.45.45,0,0,0,0,.11l0,0a.74.74,0,0,0-.13.12l.17-.05,0,0,0,0h0l0,0h0s0,0,0,0"/><path class="cls-3" d="M84,146.24l0,0s0,0,0,0l0,0,0,0,0,.05.06.12a0,0,0,0,0,0,0h0a.05.05,0,0,0,0,0s0,0,0,0a.08.08,0,0,1,0,0s0,0,0-.06a0,0,0,0,1,0,0s0,0,0,0a.3.3,0,0,0,0-.1l-.06,0,0,0H84s0,0,0,0"/><path class="cls-3" d="M84.24,146.92l0,0h0v0h0v0l0,0,0,0v0l-.07.07,0,0s-.07.07-.11.06a.09.09,0,0,1,0,0s0-.06,0-.1,0,0,0,0l0,0s0,0-.06.05l0,0h0l-.05.06-.07.05,0,.06-.06.05h0l0,0a.06.06,0,0,1,0,0h.31l.11,0s0,0,.08,0l0,0,0,0,0,0h0l0,0,0,0s0,0,0,0l0,0,0,0s0,0,0-.05,0,0,0,0a.61.61,0,0,1,0-.12.22.22,0,0,0,0-.11l-.09.13"/><path class="cls-3" d="M83.51,147.06h0l-.08.06-.08.08,0,0-.08.07,0,0h0v0h0s0,0,0,0h.09l.16-.18a.64.64,0,0,0,.14-.22h0"/><path class="cls-3" d="M83.06,147.18h0v0h0l0,0,0,0-.07.06,0,0a.19.19,0,0,0,0,.08h.09s0,0,0,0l0,0,0,0,0,0,0,0h0a.13.13,0,0,0,0-.05h0v0a.08.08,0,0,0,0,0h0"/><path class="cls-3" d="M82.72,147.24h0l-.08,0,0,0a.1.1,0,0,0,0,0h0s0,0,0,0h0s0,0,.05,0l0,0,0,0v0h0v0h0l0,0h0"/><path class="cls-3" d="M94.8,147.53h-.11a0,0,0,0,0,0,0h0s0,0,0,0l0,0,0,0,0,0s0,0,0,0l0,0,0,0,0,0,.16-.08h0"/><path class="cls-3" d="M95.18,147.58l0,0,0,0,.1,0,0,0h0l0,0h0s0,0,0,0a.85.85,0,0,1-.17,0"/><path class="cls-3" d="M86.17,148.21s-.06-.06-.09-.09l-.06-.05h0l-.07-.06,0,0h-.06l-.1-.06h-.07l-.12,0-.12,0-.09,0H85a1.17,1.17,0,0,1,.2.06.58.58,0,0,1,.18.08s0,0,0,.09h0l0,0s0,0,0,0v0l0,0h0l0,0s0,0,0,0l0,0,0,0,.08-.05.08,0,.05,0,0,0,0,0h0s0,.06,0,.08h0a.11.11,0,0,1,0,.05.44.44,0,0,0-.08.11l.07,0s0,0,.07,0l.06,0s.11-.08.16-.07,0,0,0,.07h0s0,0,0,0l0,.05v0h0l0,0,0,0,0,0,0,0a0,0,0,0,1,0,0s0,0,0,0l.13-.07,0,0h0l.06,0,0,0H86s0,0,.06,0a.13.13,0,0,1,0,.06v.06c.07,0,.1,0,.16-.07s.06,0,.07-.06-.07-.06-.11-.08"/><path class="cls-3" d="M91.88,148l0,0,0,0h0l0,0,0,0a0,0,0,0,1,0,0l0,0,0,0,0,0h0l0,0h.11l0,0h0s0,0,0,0,0-.05,0-.09Z"/><path class="cls-3" d="M86.14,148.63l-.07,0h0l-.06,0h0l-.09,0,0,0s0,0,0,0l0,0H86l.08,0h0l.06,0c.05,0,.1-.11.14-.14s0,0,0,0l-.21.09"/><path class="cls-3" d="M81.06,149.14H81s0,0,0,0l0,0h0l0,0h0s0,0,0,0l-.13.09,0,0h0l0,0h0s0,0,0,0h0l-.1.09a.09.09,0,0,0,0,.06,0,0,0,0,0,0,0s0,0,0,0l0,0,0,0h0l0,0h0l0,0h0l0,0h0l0,0,0,0h0l.08,0,.08-.06,0,0h0l0,0h0l0,0a.09.09,0,0,1,0,0s0,0,0,0"/><path class="cls-3" d="M81.45,149.19l-.07,0s0,0-.07.06h0l0,0s0,0,0,0h0l-.06,0-.07,0-.18.15,0,0s0,0,0,0,0,0,.07,0h0a0,0,0,0,1,0,0h0s0,0,0,0l0,0,0,0,0,0,.14-.08a.59.59,0,0,1,.14-.06,0,0,0,0,1,0,0,.07.07,0,0,0,0-.06.07.07,0,0,0,0,0"/><path class="cls-3" d="M81.52,149.49h-.13l0,0h0l-.14.11s0,0-.06.05,0,0,0,0,0,0,0,0a3.07,3.07,0,0,1,.36-.2s0,0,0,0a0,0,0,0,0,0,0"/><path class="cls-3" d="M91.59,149.58h-.08l-.16,0H91l-.07,0h0a1,1,0,0,0-.15,0l0,0s-.06,0-.08,0a.07.07,0,0,0,0,.06s0,0,0,0h0s0,0,0,0h0s0,0,0,0h.48l.11,0h.06l.06,0h0l0,0s.07,0,.08-.05.07,0,0-.08l-.07,0"/><path class="cls-3" d="M82.86,149.59s0,0,0,0l-.15.1s0,0-.06,0l0,0h0l-.08.05h0s0,0,0,0h0l0,0s0,0-.07,0h0l-.08.07,0,0s0,0,0,0h0l0,0h.05l0,0h.07l.07,0,0,0,0,0s0,0,0,0,0,0,0,0h0l0,0,0,0,.06,0,0,0,0,0h0l0,0h0s0,0,0,0l0,0a.05.05,0,0,0,0,0h0"/><path class="cls-3" d="M88.29,149.74s0,0,0,0h0l-.08,0-.08.05-.06,0h0l0,0h0l0,0,0,0,0,0a.05.05,0,0,0,0,0H88l0,0,0,0h0l0,0s0,0,.05,0,0,0,0,0l0,0h0l0,0,0,0s0,0,0,0h0"/><path class="cls-3" d="M81.77,149.78s0,0,0,0l-.07,0s0,0,0,0l0,0,0,0a2.18,2.18,0,0,0-.21.22l0,0h0a.08.08,0,0,0,0,0s0,0,0,0,0,0,0,0h0l.06,0h0l.05,0h0l.09-.06h0l0,0s0,0,0,0h0s0,0,0-.05h0v0h0l0,0a.09.09,0,0,0,0,0s0,0,0,0"/><path class="cls-3" d="M83.58,149.88l-.12.05,0,0h0v0h0s0,0,0,0h0s0,0,0,0a0,0,0,0,0,0,.06l.1-.07,0,0h0l0,0,0,0s.07,0,.06-.07h0"/><path class="cls-3" d="M88.4,149.94a.05.05,0,0,0,0,0h-.14l-.14.05h0s0,0,0,0,0,0,0,0h0s0,0,0,0a.14.14,0,0,0,0,.06h.13l.06,0,0,0,0,0a0,0,0,0,1,0,0h0l.06-.05a1,1,0,0,1,.15-.14s0,0,0,0l-.09.05"/><path class="cls-3" d="M88.69,150h0l-.08.06h0l0,0h0l0,0h0l0,0,0,0h0v0h0l0,0h0v0h0s0,0,0,0h0l0,0a0,0,0,0,1,0,0,0,0,0,0,0,0,0v0h.09a.14.14,0,0,0,.09,0h.07s0,0,0,0h.07l.07-.07.11-.11v0l0,0h0v0l0,0a0,0,0,0,0,0,0s0,0,0,.05"/><path class="cls-3" d="M77.08,151.38h0v0h0l0,0,.08,0h0l0,0h0l0,0h0l.06,0,.07-.06.12-.08s0,0,0,0h0l0,0h0a.15.15,0,0,1,0-.06s0,0,0,0l0,0a.6.6,0,0,1,.08-.08.39.39,0,0,0,.1-.08h0a0,0,0,0,0,0,0h0l0-.05.06,0,0,0v0h0l0,0,0,0,0,0s0,0,0,0l.18-.16,0,0h-.07l0,0h0l0,0h0l0,0h0l-.12.09,0,0h0l0,0,0,0s0,0,0,0a0,0,0,0,0,0,0h0l0,0h-.08l0,0h0l0,0,0,0h0l0,0-.1.08h0l-.07,0-.09.07-.08.05h0l0,0h0v0h0l-.07.06v0h0a0,0,0,0,1,0,0h0l-.14.15s0,0,0,0l.12,0"/><path class="cls-3" d="M94.11,150.37l-.09.08,0,0-.07.07h0l0,0-.11.1h0l0,0h0s0,0,0,0h0l-.1.09,0,0,0,0-.13.12,0,0a0,0,0,0,1,0,0l0,0,0,0,0,0,0,0,0,0h0l0,0,0,0h0l0,0,0,0h0l-.15.1s0,0,0,0c.2,0,.43,0,.61,0a.2.2,0,0,0,.11,0s0,0,.08-.07l0,0a.81.81,0,0,1,.16-.16l0,0,0,0,.07-.06,0,0c.07-.07.15-.13.21-.2h0l0-.06,0,0s0,0,0,0l0-.07.09-.09h0l.06-.08.05-.06a.05.05,0,0,0,0,0l-.07.05a.18.18,0,0,1-.07,0s0,0,0,.05l-.08,0a0,0,0,0,1,0,0l0,0-.06,0h0l0,0h0l-.12.09,0,0h0l0,0,0,0h0s0,0,0,0l0,0v0h0v0l0,0-.07.06h0l-.07.06h0s0,0,0,0l0,0h-.08v0h0l0,0h0l0,0H93.2a0,0,0,0,1,0-.06h0a1.58,1.58,0,0,1,.15-.12h0l0,0,.07-.05h0l.07-.05a.08.08,0,0,0,0,0l0,0,0,0s0,0,0,0l0,0,0,0,0,0v0l0,0,.12-.12h0s0,0,0,0l0,0h0v0a.1.1,0,0,0,0,0h0v0h0l0,0s0,0,0,0h0l0,0,0,0h0s0,0,0,0l-.09.07"/><path class="cls-3" d="M93.16,150.37l-.1.07h0a0,0,0,0,1,0,0,.76.76,0,0,0-.09.09l0,0,0,0h0l-.06.05s0,0,0,0h0a0,0,0,0,0,0,0l0,0-.1.09-.2.17h0l-.14.11,0,0a.17.17,0,0,1-.06.06s0,0,0,0,0,0-.07.06h0l0,0s0,0,0,0,.06,0,.09,0l.09,0h.47s0,0,.06,0l.13-.12.12-.11.07-.06.08-.07h0s0,0,0,0v0l.07-.06h0s0,0,0,0l.08-.09.06-.07h0s0,0,0,0l.05,0v0l0,0v0h0a0,0,0,0,1,0,0s0,0,0-.06,0,0-.06,0l0,0h0l0,0h0l-.08.07a.81.81,0,0,1-.1.09l-.11.1,0,0,0,0h0l0,0,0,0,0,0-.06.05h0l0,0,0,0-.11.09-.1,0-.09,0-.19,0s0,0-.05,0,0,0,.06,0a.12.12,0,0,0,0-.05s0,0,.07,0l.11-.1s0,0,0-.05l.16-.15,0,0,.08-.08a.94.94,0,0,1,.1-.1v0s.06,0,.07-.07l0,0,.06-.06,0,0,0,0,0-.06s0,0,0,0l0,0"/><path class="cls-3" d="M77.74,150.37l0,0h0l0,0,0,0,0,0,0,0,0,0h0v0h0a.11.11,0,0,0,0,0h0l-.06.05h-.05l-.12.1-.05,0h0l0,0,0,0h0l-.08.08-.05,0,0,0,0,0h0l-.07,0s0,0,0,0l0,0,0,0,0,0,0,0-.06.06a.17.17,0,0,0,0,.05s0,0,.08,0h.11l.05,0,0,0a0,0,0,0,1,0,0h.05l0,0h0l0,0,0,0h0l0,0s0,0,.07,0l0-.05s0,0,0,0l0,0,0,0,0,0,0,0,.06-.07h0v0h0s0,0,0,0h0l.06-.06h0s0,0,0,0a0,0,0,0,0,0,0l.1-.09a1.14,1.14,0,0,1,.11-.11l.06-.05.06-.06a0,0,0,0,0,0,0s0,0-.07,0"/><path class="cls-3" d="M86.61,150.49l-.18.1-.07,0h0l0,0,0,0h-.06l0,0,0,0h0a.08.08,0,0,0,0,0l0,0h0l.07,0v0h0v0l.09-.08a.81.81,0,0,0,.1-.09l.14-.14s0,0,0,0,0,0,0,0,0,0,0,0,0,0,0,0"/><path class="cls-3" d="M95,150.49h0v0h0l0,0h0l-.07.06-.07.07h0a.64.64,0,0,1,0,.09l0,0a.07.07,0,0,0,0,.06s0,0,0-.06l.06-.05v0l0,0v0l0,0a.36.36,0,0,1,.07-.1v0l0,0,0-.05h0s0,0,0,0"/><path class="cls-3" d="M77.07,150.54h0l-.07,0h0l0,0,0,0h0l0,0,0,0h0a.81.81,0,0,0-.14.12h0l0,0h0l-.07.06,0,.05v0h0s0,0,0,0h0l0,0h0s0,0-.05.05h0l-.06.11a.24.24,0,0,0-.06.11l.08,0a.22.22,0,0,0,.12,0,.18.18,0,0,0,.07-.05l0,0s0,0,0-.05a.34.34,0,0,0,.09-.08.6.6,0,0,0,.08-.08l.08-.09.08-.09,0,0,0,0h0l0,0h0l0,0,.17-.17Z"/><path class="cls-3" d="M95.38,150.62h0l-.05,0h0l0,0h0l0,0,0,0,0,0-.1.07s0,0,0,.07,0,0,0,0h0l-.07.07h0l0,0h0l0,0h0s-.08.05-.11.08l-.24.15-.13.1h0l0,0s0,0,0,0h0s0,0,.06,0l.08,0h.12a0,0,0,0,0,0,0h0l0,0h0l0,0h0l0,0h0s0,0,0,0l.1-.07,0,0h0l0,0s0,0,0,0a.05.05,0,0,0,0,0h0l0,0h0s0,0,0,0h0v0s0,0,0,0a.11.11,0,0,0,0,0l0,0a.08.08,0,0,1,0,0l0-.06,0,0v0h0l0,0v0l0,0,0,0s0,0,0,0,0,0,0,0h0"/><path class="cls-3" d="M95,151.47l.14-.08,0,0s0,0,0,0h0l0,0h0s0,0,0,0,0,0,0,0h0s0,0,0,0l0,0,0,0s0,0,0,0h0l0,0h0v0h0l0,0,.07-.08,0,0,0,0,.06-.07h0s0,0,0-.06v0s0,0,0,0h0s0,0,0,0h0l0,0h0l-.07.08,0,0h0l0,0,0,0h0l0,0-.07,0,0,0h0l0,0-.09.08,0,0,0,0-.07.05-.06.05-.14.09h0l0,0s-.09.05-.11.08l0,0,0,0s0,0,0,0a.61.61,0,0,0,.33-.1"/><path class="cls-3" d="M86.89,150.66a1.19,1.19,0,0,0-.16.08h0l-.06,0h0s0,0,0,0h-.07l-.06,0h0l0,0-.06.05h0s0,0,0,0l0,0,0,0h.11a.2.2,0,0,1,.08,0l0,0s0,0,0,0l0,0,.06,0,0,0,0,0s0,0,0,0l.06-.05,0,0v0s0,0,0,0,0,0,0,0l0,0,0,0s0,0,0,0Z"/><path class="cls-3" d="M87.09,150.79l-.09.06h0l0,0,0,0h0l0,0h0l0,.05,0,0-.11.09h0s0,0-.06,0a.84.84,0,0,0,.14.06l0,0h0l0,0h0s0,0,0,0l0,0,0,0L87,151l.1-.1s0,0,0,0,0,0,0,0a.28.28,0,0,0,.07-.09h0l-.07,0"/><path class="cls-3" d="M94.61,150.84h0l-.06,0-.05,0h0l-.07.06h0v0a.09.09,0,0,0,0,0l0,0h0l0,0h0l0,0,0,0h0l-.07.06h0l-.06,0h0l0,0a.2.2,0,0,0-.06.07s0,0,0,.06,0,0,0,0H94l0,0,.06,0h0l0,0s0,0,.06,0l.06,0s0,0,0,0h0l0,0h0l0,0,0,0,.07-.07,0,0h0v0a0,0,0,0,1,0,0s0-.06,0-.11Z"/><path class="cls-3" d="M95.31,151.61h0a1.12,1.12,0,0,0,.22-.1h0l.08-.07h0l0,0h0l0,0,0,0,0,0h0v0h0l0,0h0l0-.06,0,0,0,0s0,0,0,0l.07-.09.06-.09s0,0,0,0,0,0-.06,0,0,0-.08.07L96,151s0,0,0,0h0l0,0-.05,0,0,0,0,0,0,0h0a0,0,0,0,1,0,0l0,0-.08,0,0,0-.21.14h0l0,0,0,0h0a.16.16,0,0,0,0,.07h.12"/><path class="cls-3" d="M87.35,150.93h0l0,0-.06,0,0,0h0s0,0-.07,0h0l-.06,0a.45.45,0,0,1-.13.11s0,0,0,0,0,0,0,0,0,0,0,0,0,0,.07,0,0,0,0,0h0v0h0l0,0h0l0,0,0,0h0s0-.05.07-.06,0,0,0-.06l.07-.08h0l0-.06s0,0,0,0a0,0,0,0,0,0,0s0,0,0,0"/><path class="cls-3" d="M87.55,151.16l-.11.05-.1,0a0,0,0,0,1,0,0s0,0,0,0h0l-.06.06,0,0,0,0h0l0,0s0,0,0,0,0,0,.08,0h0a.19.19,0,0,0,.09,0h0l0,0,.06,0,0,0s0,0,0,0h0l0-.06h0l0,0h0l0,0,0,0h0l0-.05h0"/><path class="cls-3" d="M88,151.2a.18.18,0,0,0-.07.05l0,0,0,0-.07,0,0,0-.08,0,0,0-.06,0,0,0,0,0,0,0-.06,0-.06,0h-.08l0,0,0,0a.23.23,0,0,0,.18,0l.06,0h0a.11.11,0,0,1,.08,0l0,0h0v0s0,0,0,0a.43.43,0,0,0,0,.05s0,0-.06,0,0,0,0,0l0,0,0,0h.09l.15,0a.23.23,0,0,0,.1,0h0s0,0,0,0h0a0,0,0,0,0,0,0s0,0,0,0l-.12.12,0,0s0,0,0,0,.08,0,.12,0l0,0,.06,0h0L88,152h0l.11-.08,0,0,0,0h0l0,0,.06-.07h0a0,0,0,0,0,0,0s0,0,0,0a.15.15,0,0,0,0-.07l0,0,0,0-.06,0-.07,0H88s0,0,.06-.07,0-.05.06-.06,0,0,0-.05,0,0,0,0v0l0,0a0,0,0,0,0,0,0v0s0,0,0-.06,0,0,0,0,0,0,0,0l0,0-.11.1-.07.06h0l-.06.05s0,0,0,0h0a.08.08,0,0,1-.07,0,.08.08,0,0,1,0-.07s0,0,0,0l0,0,0,0a.1.1,0,0,0,0-.07s0,0,0,0h0a0,0,0,0,0,0,0l0-.07,0-.08Z"/><path class="cls-3" d="M85.33,149.24s0,0,0,0,0,0,0,.06v0h0v0l0,0a.1.1,0,0,0,0,0v0a0,0,0,0,0,0,0s0,0,0,0l.07,0a.3.3,0,0,0,.14,0,1.57,1.57,0,0,1,.23-.09s0,0,0,0l0,0,0,0,0,0,0,0h0l0,0s0,0-.05,0v0h0s0,0,0,.05.07,0,.1,0h0l.07,0,.07,0s0,0,0,0l-.07.08,0,0-.07.07,0,0a.07.07,0,0,0,0,.05s0,0,0,0h0v0h0l0,0a.07.07,0,0,0,0,.05l0,0s0,0,0,.06-.06,0-.09,0l-.06,0h0l-.07.06-.06,0,0,0s0,0,0,0a0,0,0,0,0,0,0l0,0s0,0,0,0l-.08.05,0,0h0l-.06,0h0s0,0,0,0,0,0,0,0a.08.08,0,0,0,.06,0s.06-.06.09-.09l.08-.07h0l0,0h0l.06-.06.05,0s0,0,0,0h0l0-.05s0,0,0,0v0l0,0s0-.09,0-.11a.6.6,0,0,0-.15.09l0,0h0l-.08.06-.28.19s0,0,0,0,0,0,0-.06l0,0,0,0,.11-.11,0,0,.16-.17,0-.05,0-.05a.06.06,0,0,0,0-.09.81.81,0,0,0-.18.12l-.13.09,0,0,0,0a0,0,0,0,0,0,0s0,0,0,0l0,0h0s0,0,0,0l0-.06h0l0,0a.16.16,0,0,0,0-.07l0,0s0,0,0,0h0s-.07,0-.1,0h0s0,0,0,0-.07,0-.1,0,0,0,0,0h0l0,0a0,0,0,0,1,0,0v0l0,0h-.27s0,0,0,0l0,0h.09l.11,0h0l0,0h.08l.15-.08.21-.12a.49.49,0,0,0-.11.2s0,0,0,0h0l0,0,0,0h0l0,0,.12-.06.07,0"/><path class="cls-3" d="M86,149.94s0,0,0,0a.21.21,0,0,1,0,.06l-.05.06h0l0,0h0l0,.05,0,0s0,0,0,0,0,0,0,.06,0,0-.06,0l0,0,0,0h0l-.05,0,0,0h0v0h0l0,0-.06,0h0l-.08,0s-.06,0-.1.05a0,0,0,0,1,0,0l.13-.12,0,0,0,0h0l.1-.1h0l0,0h0l0-.05s0,0,0,0h0l0,0h0l0,0h0l0,0h0l0,0h0l.07,0,.14-.09"/><path class="cls-3" d="M80.1,150l0,0,0,0-.1.08h0s0,0,0,0h0s0,0,0,0h0l0,0h0l0,0,0,0,0,0,0,0,0,0a.17.17,0,0,1-.06.06l0,0h0l0,0H79.5a.09.09,0,0,1-.06,0l0,0,.05-.05,0,0,.08-.07h0l0,0h0l.06,0h0l0,0h0s0,0,0,0l.2-.1"/><path class="cls-3" d="M79.06,150.1s0,0,0,0h0v0l0,0-.1.1-.15.15-.05.06,0,0,0,0-.09.08,0,0h0l0,0-.12.08-.07.07,0,0h0l0,0-.06,0h0l0,0h0l0,0,0,0-.06.06a0,0,0,0,0,0,0h0s-.06,0-.07.06a.06.06,0,0,0,0,.06h0a.09.09,0,0,0,.06,0,0,0,0,0,0,0,0h0l0,0h0l.1-.08,0,0h0a.46.46,0,0,1,.07-.07l.05,0,0,0,.08-.06a.27.27,0,0,1,.08-.07l.05-.06h0l0,0,.1-.09h0l.08-.06h0a0,0,0,0,1,0,0h0l.07,0,0,0h0l0,0h0l0,0a0,0,0,0,0,0,0l0,0,0,0,0,0,0,0,0,0s.07-.06.12-.07l-.13.14h0l0,0a0,0,0,0,0,0,0l0,0h0l0,0v0h0a.27.27,0,0,0-.07.08.39.39,0,0,0-.1.08l-.07.06h0a1.7,1.7,0,0,0-.19.19s0,0,0,0l-.07,0-.06.05,0,0,0,0,0,0h0l0,0,0,0-.08.07-.1.11,0,0,0,0a0,0,0,0,0,0,0h-.15l-.63,0h0v0h0s0,0,.06,0,0,0,0,0l0,0,0,0h0l0,0,0,0h0s0,0,0,0h.07l.07,0,0,0h0s0,0,0,0l0,0s0-.05.07-.06l.25-.21,0,0,.09-.07,0,0h0v0h0s0,0,0,0l0,0h.05l0,0h0l.07-.05,0,0,.07,0a0,0,0,0,0,0,0s0,0,0,0h0l0,0,0,0,0,0h0l0,0h0l0,0h0l0,0h0l.05,0s0,0,0,0"/><path class="cls-3" d="M92.23,150.67a.1.1,0,0,1,0,0l.07,0,0,0s0,0,0,0h0l0,0s0,0,0,0v0s0,0,0,0l0,0,0,0,.12-.08s0-.05.07-.05a.39.39,0,0,1-.08.1l-.06.08s0,0,0,0h0l0,.06-.06,0s0,0-.07.06l-.06,0s0,0-.06,0h-.11"/><path class="cls-3" d="M76.28,150.76l-.06,0h0l0,0,0,0h0l0,0,0,.05-.14.12,0,0,0,0,0,.05h0v.18h0l0,0h0l0,0h0l0,0h0v0h0v0l.05,0h0l0,0,0-.05s0,0,0,0l0,0s0,0,0,0h0v0h0s0,0,0,0h0l0,0v0h0s0,0,0,0h0"/><path class="cls-3" d="M96.69,151.89l-.23,0-.18,0h-.35a.57.57,0,0,0-.13,0h-.5l-.3,0h-.3l-.26,0H94.3l-.21,0-.2,0h-.45c-.23,0-.46,0-.69,0h-.48s-.09,0-.1,0H92s-.09,0-.1,0h0s0,0,0,0a.09.09,0,0,0-.09,0s-.07,0-.11,0l-.2,0s0,0,0,0v0s0,0,.06-.05l0,0,0,0,0,0h0l0,0,0,0h0s0,0,0,0l0,0h0l0,0h0l0,0s0,0,0,0a.08.08,0,0,1,0,0l0-.05,0,0h0L92,151l0,0h0l0,0,0,0s0,0,0,0,0,0,.07-.06,0,0,0,0a.58.58,0,0,0-.24.1l0,0h0a.69.69,0,0,0-.13.11l0,0,0,0-.06.05,0,0,0,0,0,0,0,0s0,.05-.08.06l0,0h0l0,0-.13.07s-.13.09-.16,0v0s0,0,0,0,0,0,0,0,0,0,0,0a.06.06,0,0,1,0,0s0,0,0,0l.08-.06,0,0,.12-.11,0,0,0,0,0,0,.1-.09.14-.12h0v0l.13-.11h0s0,0,0,0h0l0,0s0,0,0,0l0,0,0-.05,0,0v0s0,0,0,0,0,0,0,0h0s0-.05.06-.08l-.06,0-.12.08,0,0h0l-.08.07,0,0,0,0h-.05l0,0a0,0,0,0,1,0,0l-.07,0,0,0,0,0s0,0,0,0h0s0,0,0,0l0,0h0l0,0h0a0,0,0,0,0,0,0l0,0h0l-.09.07,0,0,0,0,0,0-.08.06-.06,0,0,0,0,0h0l0,0h0l0,0h0s0,0,0,0h0l-.06,0h0s0,0,0,0,0,0,0,0h0l0-.05.06,0h0l0,0,0,0h0l0,0,0,0s0,0,0,0h0l.06,0,.12-.11h0l0,0,0,0,.11-.1,0,0,0,0,0,0h0s0,0,0,0h0l0,0s0,0,0,0h0s0,0,0,0,0,0,0,0l0,0-.07.05-.06,0-.09.07h0a0,0,0,0,1,0,0h-.07l0,0,0,0h0l0,0,0,0h0l0,0,0,0,0,0a1.82,1.82,0,0,1-.23.15.6.6,0,0,1-.11.06h-.07s0,0,0,0h0s0,0,0,0h0l0,0h.07l.06-.05,0,0,.06,0s0,0,0,0h0l0,0,0,0,0,0,.08-.09h0l0-.05,0,0h0s0,0,0,0v0h0v0l0,0h0v0h-.08a0,0,0,0,1,0,0l-.06,0h0a0,0,0,0,0,0,0h0l0,0,0,0h0l0,0h0l-.16.12h0l0,0-.12.07-.07,0s0,0,0-.07,0,0,0,0h0l0,0a.18.18,0,0,1,.07,0s0,0,0-.05,0,0,0,0l0,0,0,0,.13-.13,0,0h0l0,0,0,0,0,0s0,0,0,0,0,0-.06,0h0l0,0h0l-.06,0h0l0,0,0,0h0l0,0,0,0h0l0,0,0,0h0l0,0s-.08,0-.08,0,0,0,0,0a.06.06,0,0,1,0,0h0s0,0,0,0h0a0,0,0,0,0,0,0l0,0,0,0s0,0,0,0h0l0-.06s0,0,0,0l0,0,0-.06s0,0,0-.05l0,0-.08.05h0l0,0,0,0h-.07a0,0,0,0,1,0,0h0a.08.08,0,0,1-.07,0s-.06,0-.06-.08a.26.26,0,0,0,0-.09s0,0,0,0l0,0v0h0a0,0,0,0,0,0,0l.07-.07a0,0,0,0,0,0,0l0,0,0,0-.06,0,0,0h-.08l0,0h-.07l0,0h0l0,0a.16.16,0,0,0,0,.07s0,0,0,0l0,0v0a0,0,0,0,1,0,0s0,0,0,0a0,0,0,0,1,0,0l0,.05v0a.13.13,0,0,1,0,.06s0,0,0,0,0,0,0,.06a.19.19,0,0,0,0,.08.19.19,0,0,1,0,.07l0,.07h0v0a0,0,0,0,0,0,0h0a.09.09,0,0,1,0,0s0,.07,0,.08h0v.1s0,0,0,0v0a.31.31,0,0,0,0,.09h0a.13.13,0,0,1,0,.06s0,0,0,.07a0,0,0,0,0,0,0v0h0l0,0h0a.12.12,0,0,0-.05,0l-.07,0s0,0,0,0l0,0H90s0,0,0,0,0,0,0,0h0s0,0,0,0a.06.06,0,0,0,0,0l0,0s0,0,0,0,0,0,0,0l0,0,0,0s0,0,0,0l0-.08a0,0,0,0,0,0,0h0l0,0s0,0,0,0-.08,0-.08,0a.07.07,0,0,1,0-.06l0-.06s0,0,0,0h0v0l0,0s0,0,0-.05,0,0,0-.05,0,0,0,0l-.06,0a.12.12,0,0,1-.08,0,.09.09,0,0,1,0,0,0,0,0,0,1,0,0h0s0-.05.06-.07h0l.08-.07s0,0,0,0l-.07,0h-.13s0,0,0-.05v0s0-.09,0-.14l0,0a0,0,0,0,0,0,0,.3.3,0,0,0,0-.1c0-.05,0-.07,0-.13l0-.06v0l0,0s0,0,0,0,0,0,0-.07l0,0v0l0-.06a.36.36,0,0,0,.07-.1s0,0,0,0h0l-.09,0a.75.75,0,0,0,0-.15.1.1,0,0,1,0-.05l0,0,0,0,0,0,.07-.06s0,0,0,0h0s0,0,0,0l0-.07v0s0,0,0,0l0,0a.43.43,0,0,0,0-.05h0l0,0-.13.14-.11.07a.41.41,0,0,1-.11.07c0-.07-.09-.11-.06-.19a.16.16,0,0,0,.06-.05h0l0,0s0,0,0,0h0v0h0l.13-.11h0l0,0s0,0,0,0h0a.39.39,0,0,0,.1-.08l0,0s0,0,0,0h0l0,0a.15.15,0,0,1,0,.06,0,0,0,0,1,0,0,.22.22,0,0,1,0,.11v0h0v.06h0a.43.43,0,0,0,0,.16v.08a.28.28,0,0,0,0,.09v.05s0,0,0,0,0,0,0,0,0-.08,0-.12l0,0s0,0,0,0v0l0,0,0-.07h0a1.17,1.17,0,0,1,0-.11l0,0a0,0,0,0,1,0,0l0,0v0h0a.09.09,0,0,0,0-.05.14.14,0,0,0,0-.06s0,0,0-.09V149s0,0,0-.06,0,0,0-.06a.08.08,0,0,0,0-.05v0a0,0,0,0,1,0,0l0,0a.25.25,0,0,0,0-.08h0l0-.09h0a.16.16,0,0,1,0-.09l-.06-.1s0,0,0,0,0,0,0,0l0-.07,0,0,0,0,0,0s0,0,0,0h0l-.1-.11v0h0l-.1-.1,0,0,.1.15.09.15s0,0,0,0h0s0,0,0,0v0a.31.31,0,0,1,.05.1s0,0,0,0,0,.06,0,.08,0,0,0,0v0h0a.64.64,0,0,1,0,.07.11.11,0,0,1,0,.06s0,0,0,0a.76.76,0,0,1,.16-.06.06.06,0,0,1,0,.06s0,0,0,0,0,0,0,0h0l0,.06,0,0v0h0s0,0,0,0a.16.16,0,0,1,0,.08l-.06.08-.07.08,0,0,0,0,0,0,0,0-.1.07,0,0s0,0-.08,0l-.07-.09s0,0,0-.05l0,0v0h0l0,0v0l0,0,.08-.1s0,0,0,0,0,0,0,0h0s0,0,0,0,0,0,0,0h0s0,0,0,0a0,0,0,0,0,0,0h-.09l-.05,0h0l-.18.11,0,0a.27.27,0,0,1-.08-.07l.05,0s.06-.05.08-.08l0,0,0,0h0s0,0,0,0l.08-.09h0s0,0,0,0,0,0,0,0a.08.08,0,0,1,0-.07s0,0,0,0l0,0a.09.09,0,0,1,0-.05v0l0,0h0a0,0,0,0,1,0,0s0,0,0-.05a1.66,1.66,0,0,1-.13.14l-.06.06-.14.11-.08.06h0l0,0h0l0,0h0l0,0,0,0h0l0,0,0,0s0,0,0,0,0,0,0,0l0,0,0,0,0,0v0h0a0,0,0,0,0,0,0h0l0,0,0,0h0l0,0s0,0,0,0l0,0,0,0,0,0,0,0s0,0,0,0l0,0s0,0,0-.05l0,0v0h0a1.37,1.37,0,0,1-.18.16.47.47,0,0,1-.09.06.86.86,0,0,1-.2.13s0,0-.06,0,0,0-.06,0,0,0-.06,0a.43.43,0,0,1,.11-.12h0s0,0,0,0l0,0h0s0,0,0,0h0a.34.34,0,0,1,.09-.08s0,0,0,0l-.13.07-.13.06-.19.11-.07,0s0,0,0,0,0,0-.05,0h0s0-.08,0-.11v0l0,0s0,0,0,0h0l0,0a.15.15,0,0,0,.06-.05h0s0,0,0,0h0l0,0a0,0,0,0,0,0,0s0,0,0,0l-.13.06-.1.05,0,0h0l-.16.09h0l0,0H88l0,0s0,0,0-.06h.06l0,0,0,0h0l0,0h0l0,0h0l0,0s0,0,0,0v0s0,0,0,0a1,1,0,0,0-.15.07h-.08l-.06,0-.08,0h-.1s0,0-.06,0,0,0,0,0,0,0,0,0l0,0h0v0h0l0,0h0s0,0,0,0h0l0,0h0l-.08,0-.17,0s0,0,0,0,0-.05,0-.07l0,0,0,0s0,0,0,0l0,0h0s0,0,0,0,0,0,0,0l-.22.08-.07,0h0a.08.08,0,0,1-.07,0h0l0,0-.05,0,0,0h0l0,0-.08-.06,0,0h0l0,0h0l-.07-.06-.06,0,0,0h0v0l0,0h0a0,0,0,0,1,0-.08h0s0,0,0,0,.05,0,.07,0l0-.05a.09.09,0,0,0,0-.05l0,0h0l0,0-.06,0-.06,0h0l0,0a.24.24,0,0,1-.1,0h0a.11.11,0,0,1,0-.08l0,0s0,0,0,0h0l0,0h0l0,0,0,0h0l0,0s0,0,0,0,0,0,0,0-.07,0-.1.05l0,0-.09,0-.08,0,0,0h-.05l0,0h0s0,0,0,0,0,0,0,0h0l0,0v0a.6.6,0,0,1,.08-.08l0,0,0,0h0l0-.05v0l-.07,0-.07,0h0l-.12.07h0s0,0,0,0l0,0h0l0,0-.06,0h0v0h0l0,0,0,0s0,0,0,0,0,0,0-.06l0,0,.13-.17h0s0,0,0,0l-.14.09-.14.08-.17.08s-.08,0-.11,0a0,0,0,0,1,0-.07h0s0,0,0,0h0a.13.13,0,0,0,0-.06.43.43,0,0,0,0-.07l0-.06s0,0,.05-.06l-.09,0-.07.05,0,0h0l0,0,0,0h0s0,0-.06,0l0,0h0l-.09,0h-.07l0,0s0,0,0,0h0l0,0,0-.07h0s0,0,0,0l0,0v0l0,0h0l0,0-.06,0h0l-.16.08h0s0,0-.09,0,0,0,0-.07l.06-.07h0l0,0,0,0,0,0,0,0,0,0,0,0,0,0,0,0s0,0,0,0a1.07,1.07,0,0,1-.27.07s0,0,0-.06l0-.11,0-.09s0,0,0,0,0,.11,0,.15v0l0,.1s0,.07,0,.1l0,0-.06.08,0,0,0,0s0,0,0,0,0,0,0,0l-.06.07s0,0,0,0-.1.06-.13.09a.37.37,0,0,1-.14.07l0,0h0l-.08,0-.06,0-.31,0H83a.06.06,0,0,1,0,0h0a0,0,0,0,0,0,0s0,0,0,0l-.14,0-.06,0-.11,0h0l0,0s0,0,0,0l-.06,0s0,0,0,0l0,0s0,0,0,0h0l0,0a.43.43,0,0,1,0-.07.2.2,0,0,1,0-.08s0,0,0,0h0v0a.15.15,0,0,1,0-.07.07.07,0,0,1,0-.06s0,0,.08,0l.12,0h.07l0,0,.16.09s0,0,.05,0a.28.28,0,0,0,.14,0h.09l.06,0h0s0,0,0,0h.07l0,0s0,0,0,0h0l0,0h.06l.09-.06.07-.06h0a1.29,1.29,0,0,0,0-.21l0-.07,0,0a0,0,0,0,1,0,0l0,0,.06,0,0,0,0,0,0,0,.07,0H84s0,0,.06,0h.07l0,0h0l.08,0s0,0,0,0,0,0,.07,0h0l.08,0,.19.06h.11l.11,0,.23,0a.25.25,0,0,0,.12,0h.08l.09,0h.51l.3,0h.62l.15,0,0,0h.06v0h0l0,0h.07l0,0h0l0,0h.06l0,0,.09,0,0,0,.19.05h0l.09,0,0,0s0,0,0,0,0,.06,0,.07v0h0l0,.06s0,0,0,0h0l.1,0,.1,0h.19a0,0,0,0,0,0,0,.11.11,0,0,1,0,.08.05.05,0,0,1,0,0s0,0,0,0l0,0a0,0,0,0,0,0,0l.09,0,.09,0,.06,0h.16a.08.08,0,0,1,0,.07,0,0,0,0,0,0,0l-.06,0h0l0,0,0,0s0,0,0,0,0,0,0,0l0,0,.12,0,.06,0c.06,0,.11,0,.12,0s0,.05,0,.07h0v0l0,.05s0,0,0,0H89l.09,0h.1s0,0,0,.05,0,.05,0,.08l.15,0h.17l.07,0a.08.08,0,0,1,.07,0l0,0h0l0,0,0,0h0l0,0a0,0,0,0,0,0,0h0l0,0h0l0,0h0l0,.06s0,.07.05.1v0h0a0,0,0,0,0,0,0l0,0h0v0a.05.05,0,0,1,0,0h0a0,0,0,0,0,0,0h0s0,.05,0,.06v-.06a.37.37,0,0,1,0-.09s0-.07,0-.1a.5.5,0,0,0,0-.13l-.06-.12a.05.05,0,0,1,0,0l0,0,0,0,0,0a0,0,0,0,1,0,0h0a.05.05,0,0,1,0,0h0l0,0,0,0s0,0,0,0,0,0,.08,0l0,0,0,0,.06,0a0,0,0,0,1,.07,0,.19.19,0,0,1,0,.08,0,0,0,0,1,0,0,.13.13,0,0,0,0,.05h0s0,0,0,.05,0,0,.06,0,0,0,0,0l.08-.06s0,0,.06,0l.07,0h0l0,0a.29.29,0,0,1,.1,0l0,0v0s0,0,0,0l0,.06h0l0,0h0s0,0,0,0l0,0s-.07.07-.1.09h0l.07,0s0,0,0,0l.07,0,.06,0h0l0,0,.06,0h0l0,0,.07-.06h0s0,0,0,0,0,0,0,0l.07,0,.07,0s0,0,0,0,0,0,0,0,0,0,0,0l0,.05s0,0,0,0l0,0h0s0,0,0,.05h0l0,0,0,0,0,0h0s0,0,0,0v0l-.08.08,0,0a1.42,1.42,0,0,1-.13.12s0,0,0,0,0,0,0,0l0,0h0s0,0,0,0h0l0,0h0l.12-.08,0,0,.09-.07.12-.09.11-.07h0l0,0,0,0,.06-.05.12-.08.13-.08.13-.05a.3.3,0,0,1,.13,0l0,0s0,0-.05.05a.18.18,0,0,1,0,.07.46.46,0,0,1-.07.07l-.09.08-.06,0,0,0h0s0,0,0,0,0,0,0,0h0s0,0,0,0l0,0h0v0h0l0,0s0,0,0,0,0,0,0,0l.22-.11,0,0,.1-.06,0,0h0l.1-.06.11-.06.1-.07,0,0,.05,0,.06,0,0,0,.12,0h.05l.06,0h.07s0,.06,0,.08h0l0,0,0,0,0,0h0s-.05.06-.08.07l-.06.06s0,0,0,0a.85.85,0,0,0,.17-.06l0,0,.08,0,0,0h0l.11-.06.09,0,.08,0,.05,0,0,0H93s0,0,.07,0a.86.86,0,0,1-.07.1l0,0s0,0,0,.05h0s0,0,0,0,.06,0,.08,0l.1-.06,0,0h0l0,0h0l.06,0,.11-.06.07,0a.12.12,0,0,1,.08,0l0,0,0,0v0s0,0,0,.06v0s0,0,0,0,0,0,.06,0l0,0,.09-.07,0,0a.05.05,0,0,0,0,0l.09,0c.07-.06.19,0,.29,0h.08l0,.05h0l0,0s0,0,0,0l0,0h0v0a.43.43,0,0,0,0,.07s0,0,0,0,0,0,0,0l.05,0,.09,0,0,0,0,0h0l0,0h0l.11-.06,0,0h0l0,0h.06s0,0,0,0h.1s0,0,0,0h.14l.18,0h1.15a.11.11,0,0,1,0,.06l0,0h0l-.1.12h0a.09.09,0,0,0,.06,0l.08,0,0,0h0l.18-.12a.52.52,0,0,1,.13-.06s0,0,0,0v0s0,0,0,0a0,0,0,0,0,0,0l0,0,0,0h0s0,0,0,0,0,0,0,0h.06l.09-.06h0l0,0h0v-.33h-.22a1.46,1.46,0,0,1-.21,0h0c-.16,0-.33,0-.5,0l-.33,0s0,0-.07,0l-.08,0h-.08l-.16,0h-.8s0,0-.06,0H94l-.08,0H93.8a.51.51,0,0,1-.17,0h-.21s0,0,0,0h-.06l-.48,0h-2l0,0h-.48l-.35,0h-.27a.27.27,0,0,1-.09,0h-.11l-.11,0h0l-.09,0h-.22l-.05,0H89l-.07,0h-.06l-.09,0h0l-.07,0h-.13l-.16-.05H88.3l-.09,0h-.1a.2.2,0,0,0-.11,0l-.07,0-.1,0h0l-.07,0-.08,0h-.06l0,0h-.12l0,0h0l0,0h0l-.07,0h0l0,0H87l-.23-.06h-.05s0,0-.06,0-.06,0-.06,0h-.09s0,0,0,0h-.34l-.17,0h-.49l-.16,0h-.11a.41.41,0,0,1-.15,0h-.12l-.2,0h0l-.08,0h0s0,0,0,0l0,0h-.15l0,0h-.11l-.16,0h-.43l0,0h0l0,0-.24.14,0,0s0,0,0,0h-.07l0,0h0s0,0,0,0h0a.69.69,0,0,1-.15.07h-.1a2.29,2.29,0,0,1-.28.09l-.24,0-.25,0s0,0,0,0l0,0v0s0,0,0,.06a.17.17,0,0,0,0,.1V147s0,0,0,0,0,0,0,0a.14.14,0,0,1,0,.07s0,0,0,0h0l0,0,0,0h-.08l0,0h-.14l-.09,0h-.06a2.58,2.58,0,0,1-.29,0h-.84s0,0,0,0h-.17a.48.48,0,0,1-.12,0h-.47l-.36,0H77.76s0,0,0,0h-2v.34l.11-.06.06,0a.15.15,0,0,1,.07,0H76s0,0,.07,0,0,.08-.06.11l0,0h0l0,0-.1.1s0,0,0,.07h.06l0,0,0,0h0l.07,0H76a0,0,0,0,1,0,0s0,0,.06,0l0,0h.13l0,0,.09,0s0,0,.09,0a.08.08,0,0,1,0,0l0,.06,0,0,0,0h0a0,0,0,0,0,0,0h0l0,0,0,0,0,0,0,0h0l0,0s0,0,0,0h0s0,0,0,0h0a.05.05,0,0,1,0,0,.21.21,0,0,1,.1-.06l.12-.07h0v0l.06,0s0,0,0,0l.07,0h0l.1,0s0,0,0,0,.06,0,.09,0a.13.13,0,0,1,.09,0,.08.08,0,0,1,0,0h0l-.07.06,0,0h0l0,0a.67.67,0,0,0-.14.15l0,0,0,0h0l0,0h0l.07,0,.08,0,0,0,.17-.07.08,0,.08,0h.15a0,0,0,0,1,0,0h0a.24.24,0,0,0-.09.08l0,0h0l0,0h0l-.14.12a.29.29,0,0,0,.1,0,.05.05,0,0,1,0,0l0,0h0l.07,0h0l.12-.06.12,0a0,0,0,0,0,0,0h0l0,0h.07s0,0,.07,0-.06.07-.08.1h0l0,0h0l0,0,0,0,0,0h0s0,0,0,0,0,0,0,.05l.17-.08.09,0h0l0,0,0,0h0l.08,0h0l.1,0h0l.07,0h.1a.05.05,0,0,1,0,0h0s0,0,0,0l-.06.06h0l0,0h0l-.06,0v0a.1.1,0,0,0,0,0,.39.39,0,0,0,.14,0l0,0,.14-.07,0,0,.06,0s0,0,.08,0l.06,0,0,0H79c.3,0,.61,0,.92,0,.14,0,.28,0,.42,0a.56.56,0,0,1,0,.07h0s0,0,0,0h0l0,0s0,0,0,0l.07,0,.09,0h.19a.08.08,0,0,1,0,.06l0,.06.11,0,.1,0h0s0,0,0,0h0l0,0h.21l0,.09.07,0,0,0,.08,0h0v0h.21s0,0,0,.06l0,0v0h0v0a0,0,0,0,0,0,0l.14-.08.09-.06h0l0,0h0l0,0,0,0s0,0,0,0h.14a.14.14,0,0,1,0,.06.15.15,0,0,1-.06,0v0l0,0h0l-.06,0a0,0,0,0,1,0,0s0,0,0,0l.08,0h0l.09,0,.16-.05s0,0,.07,0h0s0,0,0,.05l0,0a.43.43,0,0,1-.11.12l0,0,.18-.09.09,0a.29.29,0,0,1,.19-.05l0,0s0,0,0,0l0,0,0,0h0l-.07.07h0a.17.17,0,0,0-.06.06h0s0,0,0,0h0l0,0a.59.59,0,0,0,.14-.06l.19-.07h0v0h.07l.07,0s.06,0,.07,0h0s0,0,0,0,0,.07,0,.09l0,0-.06.05h-.1l0,.05,0,0s0,0,0,0l.06,0,.07,0,.06,0,.07,0,.14-.08h0l0,0h0l0,0h0a.21.21,0,0,1,.12,0,.67.67,0,0,1,.11-.07h.07a0,0,0,0,1,0,.06h0l0,0,0,.05-.06.07h0s0,0,0,0a.13.13,0,0,0,.08,0l.06,0h0l.07,0,.08,0h0l0,0h0l0,0h0l.09,0,0,0h0s0,0,0,0l.1,0s0,0,0,0a.07.07,0,0,1,0,.06h0s0,0,0,0a.25.25,0,0,0,.11,0l.06,0h.11s0,0,.05,0h0l.09,0s0,0,0,0h.87l.16,0,.12,0,.11,0,.18.05.08,0h0l.13.06h0l0,0a0,0,0,0,1,0,0h0l0,0h0l.06,0h.06l0,0s0,0,.06.05l0,.05,0,0h0l0,0h0l.06,0,0,0,0,0a0,0,0,0,0,0,0l0,0,.09.06.08,0,.07,0,0,0h0l.08,0,.16.08a.76.76,0,0,0,.16.06s0,0,0,0l.12.06.12.06,0,0,0,0a.11.11,0,0,1,.07,0h0s0,0,0,0l.08,0h.06l.12.06.07,0,0,0,.06,0,0,0a0,0,0,0,1,0,0h0l0,0,0,0h0s0,0,0,0h0l0,0s0,0,0,0l.11.09,0,0,0,0,0,0,0,0,0,0,.06.06,0,0,0,0,0,0v0a.1.1,0,0,1,0,0v0l0,0a.43.43,0,0,0,0,.05l0,0h0v0l.05.1h0l0,.07h0a.16.16,0,0,0,0,.07.14.14,0,0,0,0,.07h0a.06.06,0,0,0,0,0h0l0,.1h0v0h0a.13.13,0,0,1,0,.06s0,0,0,0,0,0,0,.08a.43.43,0,0,0,0,.05v.07l0,0c0,.05,0,.1.05.15s0,.07,0,.11,0,0,0,0v0a.35.35,0,0,1,0,.11v0s0,0,0,0v.13l-.06.1h0l0,0,0,0,0,0h0l0,0h0l0,0h0s0,0,0,0h0l-.09.05-.09,0h0l0,0-.09,0s-.12,0-.11,0a0,0,0,0,1,0,0,.14.14,0,0,1,.09,0l0,0s0,0,0,0,0,0,0,0h0a1,1,0,0,0,.16-.06,0,0,0,0,1,0,0l0,0h0l.06,0,0-.05h0l0-.05,0,0a.36.36,0,0,0,0-.09l0,0h0a.2.2,0,0,0-.08,0h0l-.06,0,0,0h0l-.11.05h0l0,0h-.06a.05.05,0,0,0,0,0l-.13,0h-.1a0,0,0,0,1,0-.06s0,0,0,0h0l0,0h0l0,0,0,0,.11-.06.07-.05.07,0s0,0,0-.05l0,0s0,0,0,0l-.12,0h-.09l0,0-.06,0-.07,0-.07,0h-.11a.18.18,0,0,1-.05-.07l.06,0h0l.14-.08h0l0,0,.07,0h0l0,0h0s0,0,0,0,0,0,0-.06l-.1,0-.23.07-.08,0h-.1l0,0a.43.43,0,0,0,0-.05s0,0,0,0h.08l0,0,0,0,0,0s0,0,0,0l.09,0,.15-.14,0-.06a.15.15,0,0,0-.07,0l0,0h0l-.08,0-.07,0h0l0,0-.06,0,0,0h0a.5.5,0,0,1-.21,0v0s0,0,0,0v0h0l.06,0,0,0h0s0,0,0,0h.08s0,0,0,0,0,0,0,0h.05l0,0,0,0,0,0,0,0v0s0,0,0,0h0v0a1.27,1.27,0,0,0,.06-.18s0,0,0,0v0h0v0l0,0s0,0,0,0h0l-.08,0,0,0s0,0,0,0,0,0,0,0v0h0l0,0h0l0,0h0v0h0l0,0,0,0,0,0A.75.75,0,0,0,89,150a.17.17,0,0,0,0-.07v0s0,0,0,0l0,0a.26.26,0,0,0,0,.08h0v0h0s0,0,0,0h0l0,0s0,0,0,0h0l0,0h0l0,0-.09.06a.28.28,0,0,1-.09.07l-.08.06-.1.06h0s-.05,0-.06,0,.09,0,.15,0h0l.07,0h.06s0,0,0,.06,0,.05-.06.06h0l-.11,0H88.3l-.06-.06-.13-.12s0-.05-.07-.06h0s0,0,0,0l0,0-.08,0-.11-.06h0l-.06,0-.11,0s0,0,0-.05,0,0,0,0l.09-.07h0l0,0,.06,0,0,0h0l0,0h0l0,0s0,0,0,0h0l0,0s0,0,0,0-.17.07-.26.12h0l-.06,0-.1,0h-.06l-.06,0c0,.05-.06,0-.07,0v0a0,0,0,0,1,0,0l0,0s0,0,0,0h.09l0,0,0,0a.48.48,0,0,0,.11-.09h0a.43.43,0,0,0-.14,0l-.08,0h0l-.07,0h0l-.12,0h0s0,0-.07,0,0,0,0-.06l0,0,0,0,.09-.06h0s.05,0,.07-.06l-.09,0h0l-.09,0h-.08l-.07,0H87v-.05l0,0h0l0,0h0l0,0,0,0h0a0,0,0,0,0,0,0s0,0,0,0l.09-.06,0,0a1.17,1.17,0,0,0-.2.06l-.07,0h0l-.06,0s-.13,0-.13,0,0,0,0-.05l0,0h0v0h0l.06-.06s.06,0,.07-.06l-.1,0,0,0h-.06l0,0h-.1s-.06,0-.08,0v0a.15.15,0,0,0,0-.06s.09-.07.13-.1h0l.07,0,0,0h0l0,0a0,0,0,0,0,0,0l0,0h0l0,0h0l-.06,0,0,0-.06,0h0a0,0,0,0,0,0,0h0l0,0-.15,0-.06,0-.07,0h-.08l0,0a.05.05,0,0,0,0,0h0s0,0,0,0a.73.73,0,0,0,.09-.08h0l.09-.06.08-.07s0,0,0,0l-.1,0-.1.06-.1,0h0l0,0h-.08l-.06,0h0l0,0,0,0s0,0,0,.05h0l0,0,0,0v0l0,.07a.46.46,0,0,1,.07.16.11.11,0,0,1,0,.06s0,0,0,0h0a.06.06,0,0,1,0,0v0l0,0,0,0,.08.07,0,0,0,0h0l.06.06h0l.06.05.08.07s0,0,0,0h.06l0,0,.05,0,.06.06,0,0,0,0,0,0h0l0,0,0,0h0l0,0a0,0,0,0,1,0,0h0l.05,0,0,0,0,0h0l0,0h.07l0,0s0,0,0,0h0s0,0,0,0h0l0,0h0l0,0h0a0,0,0,0,1,0,0h0a0,0,0,0,1,0,0h0s0,0,0,0h0s0,0,0,0h0v0h0s0,0,0,0l0,0h0l0,0,.08.07h0l0,0,0,0s0,0,0,0a.08.08,0,0,0,0,0l0,.06s0,0,.05.05.07.13.1.21a.19.19,0,0,0,0,.07s0,0,0,0a.08.08,0,0,1,0,.05s0,.05,0,.08,0,0,0,.08,0,.05,0,.08l0,.09s0,.06,0,.1,0,0,0,0a.48.48,0,0,0-.11.09s0,0,0,0h0l-.11.07-.09.07,0,0h0l0,0s0,0,0,0l.18,0,0,0h0l.06,0,0,0a.73.73,0,0,1,.09-.08h0l0,0s0,0,0,0h.06l0,0,0,0s0,0,0,0h0s0,.07,0,.09a.43.43,0,0,1,0,.07l0,.08,0,0h0s0,0,0,0h0l0,0h-.06v0h0a.08.08,0,0,0,0,0h0s0,0,0,0l0,0-.05,0-.06,0h0s0,0,0,0h.11l.07,0h0s0,0,0,0h0l0,0,0,0h0l0,0s0,0,.05-.05l0,0,0,0h0l0,0h0l0-.06h0s0,0,0,.11v.05s0,0-.06.07l0,0,0,0h0l0,0h0l0,0-.12.06,0,0,0,0,0,0h0l0,0h0l0,0,0,0h.08l.1,0s.06,0,.09,0a.06.06,0,0,1,0,0l0,0,0,0a.23.23,0,0,1,.13-.07s0,.08,0,.09,0,0,0,0v0l-.07.06,0,0-.11.06a.45.45,0,0,0-.12.06h.06a.09.09,0,0,0,.07,0h0s.09,0,.1,0,0,0,0,0l0,0-.06,0s0,0,0,0l0,0,0,0h0l-.07,0s-.07,0-.11,0l0,0s0,0,0,0l0,0a0,0,0,0,0,0,0h0l0,0,0,0s0,0,0,0l0-.06v0s0,0,0,0v0s0,0,0,0h0v0l0,0,0,0s0,0,0,0l0,0a.08.08,0,0,0,0,0l0,0,0-.06c0-.05,0-.06-.06-.09a0,0,0,0,1,0,0,.29.29,0,0,1-.07-.08l0,0s0,0,0,0l0,0v0h0v0l0,0s0,0,0,0h0l0,0,0,0,0,0,0,0h0l0,0,0,0s0,0,0,0h0l0,0h0l0,0h0v0h-.05l0,0h0l-.09-.07h0l0,0h0l0,0h0l0,0-.07-.05,0,0,0,0h0l-.06-.06h0s0,0,0,0h0s0,0,0,0l0,0a0,0,0,0,0,0,0h0l0,0h-.07l0,0h-.06a0,0,0,0,0,0,0l-.06,0s0,0,0,0h0l0,0h0l0,0h0s0,0,0,0l-.07,0h0s0,0,0,0,0,0,.06,0l0,0h0s0,0,0,0h0v0h0l0,0,.06-.05,0,0a0,0,0,0,1,0,0h0a1.09,1.09,0,0,0,.11-.1h0c-.08,0-.14.08-.21.1l-.07,0-.06,0-.12.07h0s-.06,0-.07,0h0v0s0,0,0-.05l.21-.18,0,0h0v0h0l0,0,0,0,.05-.06,0,0s0,0,0,0l0,0,0,0,0,0s0,0-.06,0a0,0,0,0,1,0,0l0,0,0,0-.08.05,0,0h0s0,0,0,0h0l0,0-.06,0h0l0,0,0,0,0,0,0,0a0,0,0,0,0,0,0s0,0,0,0l.07,0,.07,0s0,0,0,0l0,0h0v0s0,0,.07,0l.07,0,0,0h0s0,.06,0,.07h-.17s0,0,0,0l0,0,0,0h.07c0,.05.13,0,.16.09l.06,0,.05,0h0l0,0,.12.06v0h0v0h0l0,0h0l0,0h0l.08.05h0l0,0,0,0,.05,0,0,0h0s0,0,.07.06h0l0,0h0l0,0h0s0,0,0,0h0l0,0s0,0,0,0h0l0,0,0,0a.43.43,0,0,0,0,.07s0,0,0,0a.07.07,0,0,1,0,.05s0,.06,0,.08h0s.05,0,.08,0h0s0,0,0,0,0,0,0,0,0,0,0,.05v0h0a.15.15,0,0,1,0,.08.11.11,0,0,1,0,.06l0,0,0,0h0s0,0,0,0h0l0,0H87l-.06,0s0-.06,0-.07v0h0v0s0,0,0,0h0l0,0s0,0,0,0v0s0,0,0-.07,0,.06-.06.08h0l0,0h0l-.06.05,0,0h0l-.06,0h0v0h0l-.06,0h0a.19.19,0,0,1-.13,0,.08.08,0,0,1,0,0h0a0,0,0,0,0,0,0s0,0,0,0l.06,0,.06,0,0,0h0l0,0s0,0,0,0,0,0,0,0,0,0,0,0l0,0s0,0,0,0h0l0,0h0l-.14.07,0,0-.06,0h-.05l-.11,0h0l-.14,0h-.09s0,0,0,0l.07,0h0l.07,0h0l.06,0a0,0,0,0,0,0,0h.06l0,0s0,0,0,0l0,0h0s0,0,0,0l0,0a.05.05,0,0,0,0,0s0,0-.06,0l-.07,0-.07,0-.07,0h0l-.06,0h0l-.13,0h-.1s0,0,0,0h0s0,0,0,0a.05.05,0,0,0,0,0h0a.18.18,0,0,0,.07-.05l.1-.05c.05,0,.07-.06.12-.07s0,0,0,0l0,0,0,0h0s0,0,0,0,0,0,0,0l-.13,0-.07,0H86l-.1,0-.08,0-.1,0H85.6a0,0,0,0,0,0,0s0,0,0,0a.05.05,0,0,1,0,0l0,0,0,0h0l0,0h0l0,0h0l0,0,.1-.07,0,0h0a.08.08,0,0,0,0,0,1.29,1.29,0,0,1-.21.07,1,1,0,0,1-.15.07h-.11s-.07,0-.1,0,0,0,0,0,0,0,0,0l.1-.07,0-.05,0,0h0l0,0,0,0,.06-.05h0s0,0,0,0a.38.38,0,0,1-.1,0l-.08,0h0l-.21.08-.08,0h-.08l0,0s0,0,0,0v0l0,0s0,0,0,0h0l0,0,0,0h0l0,0h0s0,0,0,0l.06,0h0l0,0s.07,0,.08-.06l-.13,0h0l-.07,0h0l0,0-.07,0h0s-.09,0-.14,0,0-.07,0-.07a.63.63,0,0,1,.12-.11h0l0,0h0l0,0a.44.44,0,0,0,.1-.08h-.06l-.15.05-.09,0-.05,0h0l0,0h0l0,0h-.13a.07.07,0,0,1,0-.06h0s0-.05.06-.07l0,0s0,0,0,0l0,0,0,0h0l.12-.1,0,0-.29.14a.57.57,0,0,1-.13.08.09.09,0,0,1,0,0h0l-.08,0h-.06v0h0a.09.09,0,0,1,0-.05h0l.09-.07s0,0,0,0l.09-.05s0,0,0,0l0,0,0,0,0,0h0l0,0h0a.09.09,0,0,0,0,0l0,0a0,0,0,0,0,0,0c-.05,0-.1,0-.14,0h0l-.07,0h0l0,0h0s0,0-.06,0-.07,0-.09-.07h0l-.06,0h-.26l-.06,0,0,0h0l0,0h0l-.07.05h0l0,0h0l0,0-.07.05h0l0,0h0l0,0h0v0h0l0,0-.1.06-.06,0h0l-.06,0,0,0h0l0,0s0,0-.08,0,0,0,0,0,.06-.06.09-.08,0,0,.06,0h.08l0,0,.06,0,.05-.06h0s0,0,0,0l0,0h0l.06-.05,0-.05h0a0,0,0,0,0,0,0h0l0,0s0,0,0,0l0,0,0,0s0,0,0,0l0,0h0l0,0h0l0,0s0,0,0,0l0,0h0l0,0-.12.07-.11.06h0l0,0,0,0,0,0h-.09s0,0,0,0h0s0,0,0,0l-.06.05,0,0h0s0,0,0,0,0,0,0,0a.18.18,0,0,1-.07,0s0,0,0,0l0,0h0l0,0h0l0,0h0l-.07,0-.06,0,0,0h0s-.07,0-.11,0a.08.08,0,0,1,0-.08s0,0,0,0,0,0,0,0h0l.1-.09h0l0,0,0,0,.19-.16a.69.69,0,0,0,.13-.11l.06-.06s0,0,.06-.06,0,0,0,0,0,0,0,0l.08-.08.05,0,0,0h0s0,0,0-.06h0a.24.24,0,0,0,.06-.08l-.15.11h0l0,0h0l0,0h0l-.06,0,0,0h0s0,0-.05,0h0v0h0s0,0,0,0h0l-.06.05s-.07.06-.11.07h0l0,0h0l0,0,0,0h0l-.07.06,0,0h0l-.07.07-.24.19h0v0H82.4s0,0,0,0a.12.12,0,0,0,0,.05h0l0,0,0,0h0l-.06,0v0h0a.1.1,0,0,1-.1,0,.07.07,0,0,1-.05,0s0,0,0-.07l0,0h0s0,0,0,0l.08-.09.23-.21,0,0,0,0h0v0l.07-.06.07-.07,0,0a.46.46,0,0,1,.07-.07l.07-.07,0,0a.23.23,0,0,1,.07-.07.46.46,0,0,0,.07-.07l0,0h0s.08,0,.06-.09,0,0-.06,0l0,0,0,0a1.18,1.18,0,0,0-.19.11l0,0h0s0,0,0,0h0l0,0,0,0s0,0,0,0-.06.05-.09.07a.1.1,0,0,1,0,0l-.07.07h0l0,0s0,0,0,0l-.08.06-.11.08,0,0h0l0,0h0s0,0,0,0a.1.1,0,0,1,0,0h-.07l0,0h0l0,0s-.05,0-.06,0,0,0,0,0a.43.43,0,0,1,.09-.1h0v0h0l.06-.06.07,0,.07-.08h0v0l.06-.06.1-.1h0l.07-.07,0,0a.08.08,0,0,1,0,0l0,0a0,0,0,0,0,0,0l.13-.1.07-.06h0l0,0h0l0,0,0,0,0,0,0,0s0,0,0,0h0l.09-.08s0,0,0,0H83l0-.05-.06,0,0,0h0v0h0l-.07,0a.5.5,0,0,1-.08.07l0,0-.06.05-.23.18s0,0,0,0h0l-.11.09h0l-.13.11h0l0,0h0a0,0,0,0,0,0,0h0l-.06,0,0,0s0,0,0,0,0,0,0,0l0,0,0,0,0,0,0,0-.07.07h0s0,0,0,0h0l-.07,0,0,0s-.07,0-.1,0,0,0,0,0l.05-.06s0,0,0,0h0l0,0,0,0,0,0h0s0,0,0,0a.1.1,0,0,0,.05,0h0l.05-.05h0s0,0,0,0l0,0v0l0,0v0l0,0v0l0-.05h0s0,0,0,0h0l0-.05.12-.1.06-.06h0s0,0,0,0a.21.21,0,0,1-.1.06h0l0,0,0,0h0v0l0,0,0,0,0,0s0,0,0,0h0l0,0,0,0h-.06l0,0,0,0,0,0-.06,0,0,0a.27.27,0,0,1-.08.07l-.07.08h0s0,0,0,0l0,0h0a.81.81,0,0,1-.09.1s0,0,0,0l0,0h0v0s0,0,0,0h0s0,0-.07,0a.07.07,0,0,1,0-.06s0,0,0-.07l.06,0h0s0,0,0,0,0,0,0,0a0,0,0,0,1,0,0v0l.12-.13h0v0h0l0,0s0,0,0,0l0,0h0a1.85,1.85,0,0,0,.14-.14h0l0,0s0,0,0,0l0,0h0l0,0h0s0,0,0,0h0s0,0,0,0h0a0,0,0,0,0,0,0h0l-.05,0h0l-.11.09,0,0h0l0,0h0l-.06.05-.08.06h0l0,0h0l0,0h0l-.11.09-.06,0-.07.06h0s-.1.1-.16.14l0,0,0,0,0,.05s0,0,0,0a0,0,0,0,1,0,0h0s0,0,0-.08a0,0,0,0,0,0,0l0,0v0a.23.23,0,0,0,.07-.07l0,0,0,0s0,0,0,0l0-.07h0l0-.05h0l0,0h0v0l0,0h0v0s0,0,0,0h0l0,0s0,0,0-.05h0v0h0s0,0,0,0h0a.08.08,0,0,0,0,0l0,0h0l0,0-.09.06-.08.05-.09.07,0,0-.12.1-.14.15,0,0,0,0,0,0,0,0,0,0,0,0h0l0,0h0l-.07.07a.08.08,0,0,0,0,0l0,0h0s0,0,0,0l0,0,0,0s0,0,0,0,0,0,0,0,0,0-.05,0,0,0,0,0,0,0,0,0,0,0,.06-.08l0-.06v0h0l.07-.09,0,0,0-.05,0,0s0,0,.06-.06l0,0s0,0,0,0l0,0a0,0,0,0,1,0,0h0l0-.05a.1.1,0,0,0,0-.05h0l0,0h0l0,0,0,0v0h0l0-.05h0s0,0,0,0h0l0,0h0l0,0h0s0,0,0,0h0l.06-.06a0,0,0,0,0,0,0h0v0l0,0s0,0,0,0l.08-.06,0,0h0a0,0,0,0,1,0,0l0,0a.07.07,0,0,0,0,0s0,0,0,0h0l-.18.13,0,0,0,0h0l0,0-.07,0h0l0,0h0l0,0,0,0s0,0,0,0v0l0,0h0a0,0,0,0,0,0,0l0,0s0,0,0,0l0,0h0l0,0,0,0v0h0l0,0h0s0,0,0,0h0l0,0,0,0,0,.05,0,0,0,0,0,0-.1.09h0c-.07.06-.13.14-.19.2h0l0,0s0,0-.07.06h0v0h0l0,0a0,0,0,0,0,0,0h0v0h0a0,0,0,0,1,0,0l0,0,0,0h0s0,0,0,0,0,0,0,0l0,0s0,0,0,0,0,0,.06,0l.07-.08a.08.08,0,0,1,0,0,0,0,0,0,1,0,0h0l.07-.07s0,0,0,0v0l0,0,.17-.16h0s0,0,0,0l0,0h0l0,0h0a0,0,0,0,1,0,0h0a0,0,0,0,0,0,0l.07-.06a0,0,0,0,1,0,0h0s0,0,0,0l0,0,0,0a0,0,0,0,0,0,0h0l0,0,.11-.1a0,0,0,0,1,0,0s0,0,0,0l0,0,.1-.1h0s0,0,0,0l-.06,0h0l0,0h0s0,0,0,0h0v0h-.05l-.09.07,0,0s0,0-.07.05l0,0h0l-.08.06-.06,0h0l-.07,0-.08.07-.05,0,0,0h0c-.06.07-.14.12-.2.18l-.06.07s0,0,0,0l-.05,0a.18.18,0,0,0,0,.07h0l0,0-.08.09-.1.09,0,0,0,0-.12.1,0,0,0,0h-.06a.14.14,0,0,1,0-.06.17.17,0,0,1,0-.06,0,0,0,0,1,0,0v0l0-.05h0a.46.46,0,0,1,.07-.07h0l0,0a.5.5,0,0,0,.08-.07v0a0,0,0,0,0,0,0h0s0,0,0,0a.1.1,0,0,1,0,0l0,0h0s0,0,0,0h0l0,0h0l.06,0s0,0,0,0h0s.05,0,.06-.06l0,0a0,0,0,0,0,0,0l0,0s0,0,0,0l0,0s0,0,0,0l-.21.1h0l0,0h0l-.06.05,0,0h0l-.05,0a.08.08,0,0,0,0,0l0,0-.05,0,0,0-.09.08-.09.07-.16.17v0l-.07.07,0,0h0l0,0,0,0s0,0,0,0l0,0-.07.05h-1.1l-.35,0h-.47l-.06,0h-.47V152H76l.31,0h.13l.23,0,.29,0h.18l.55,0H78l.6,0h.75a2,2,0,0,0,.35,0s0,0,.06,0h.68s0,0,0,0,0,0,0,0v0s0,.09,0,.12h0a.86.86,0,0,0,.07.1.1.1,0,0,0,0,0v0s0,0,0,0h0s0,0,0,0l0,0a.14.14,0,0,0,0,.07s0,0,0,.08l.06.09.08.08,0,0,0,0a.05.05,0,0,1,0,0l.15,0,.09,0h.25l0,0h.13s0,0,0,0,0,0,0,0h0s0,0,0,0h0v0l0,0,0,.08,0,0s0,0,0,0l0,0h0l0,0h0l0,0H82l0,0h0l.1.06a.46.46,0,0,0,.25.07l.22,0h.16s0,0,0,0a.13.13,0,0,1,0,.06.08.08,0,0,1,0,0s0,0,0,0l0,0s0,0,0,0l0,0,0,0,.08.08h0l0,0,0,0,0,0,0,0h0l0,0h.09l.09,0,.07,0h.28a1.8,1.8,0,0,0,.22-.06s0,0,0,0l0,0h0l0,0,.07.11,0,0,0,0s0,0,0,0l.06,0h0l0,0h0l.14.06,0,0h0l.11,0h.15s.11,0,.11,0H85l.05,0h.06l.06,0h0l0,0h0l.05,0h0l.06,0s.09,0,.11-.05h0l0,0,0,0,.19.11.09.06,0,0,.05,0,0,0h0l0,0h.3l.07,0h0a0,0,0,0,1,0,0l0,0h.12l0,0,0,0h0l0,0h0l0,0s0,0,0,0l0,0h0s0,0,0,0l0,0v0a0,0,0,0,0,0,0s0,0,0,0a0,0,0,0,0,0,0v0a0,0,0,0,0,0,0,.43.43,0,0,0,0-.05.45.45,0,0,0,0-.11h0v0a.19.19,0,0,1,0-.07h0a0,0,0,0,1,0,0h0l0,0s0,0,0,0h.06l.07,0h0a.42.42,0,0,0,.17,0l.08,0,.06,0,0,0h0l0,0,.08-.06.08-.08h0l0-.05h0s0,0,0,0v0l0,0s0,0,0,0l0,0h0l.05,0h.19l.06,0h0l.07,0,0,0,0,0a.64.64,0,0,0,.15-.13l0,0v0h0l.06-.09a.65.65,0,0,0,0-.13v0s0,0,0-.05,0,0,0,0l.09,0,.06,0h0s0,0,0,0l0,0,0,0,.09-.07,0,0a.39.39,0,0,0,.1-.08l.05,0v0h0l0,0,0,0h0s0,0,0,0,0,0,0,0l0,0h0l0-.06h0l.15,0,.1,0H90a0,0,0,0,1,0,0l0,0h0v0h0l0,0h0l0,0h0a.3.3,0,0,1,.13,0h.69c.13,0,.24,0,.35,0l.61,0,.25,0h.46l1.07.08h.34l.1,0h.15l.21,0,.4,0,1.63.11Zm-14-5.14,0,0h0l.07,0,0,0,0,0a.2.2,0,0,1,.08,0l0,0h0l0,0,0,0,0,0h0l.07,0,0,0h0s0,0,0,0v.05h0a0,0,0,0,1,0,0l0,0,0,0,0,0s0,0,0,0h0l-.07,0,0,0h0a0,0,0,0,1,0,0H83l-.06,0a.23.23,0,0,1-.12,0H82.7l0,0,0,0,.07,0m2.3,5.62.08,0,0,0h0l0,0h0v0s0,0,0,.06a.05.05,0,0,1,0,0h-.09a.25.25,0,0,0-.09,0l-.13,0s0,0,0,0h.11l0,0s0,0,0,.05l0,0,0,0v0L85,153H84.9s0,0,0,0h-.07l-.06,0h0l0,0s0,0,0,0a.06.06,0,0,1,0-.07s0,0,0,0v0l0,0s0,0,0,0v0l0,0h0l0,0h0l.07,0s0,0,0,0l0,0a0,0,0,0,0,0,0s-.07,0-.1,0h0s0-.06,0-.07h0l0,0s0,0,0,0H85m-.41.73.08,0h0s0,0,0,0,0,0,0,0h0s0,0,0,0,0,0,0,0l0,0-.09,0h0s0,0,0,0,0,0,0,0h0s0,0,0,0m-.2-2.2h0l0,0,0,0h.1s0,0,.06,0,0,0,0,0,0,0,0,0a.1.1,0,0,1,0,.08l0,0h0s0,0-.06.05h0l-.15.09h0l0,0h0s-.07,0-.08,0,0,0,0-.05l0,0h0l0,0,.18-.15s0,0,0,0m-.84.38,0,0h0s0,0,.05-.05l.14-.12.13-.11,0,0,0,0h0l0,0h0l0,0h0s0,0,.06,0l0,0s0,0,0,0h0a.15.15,0,0,1,.1,0,0,0,0,0,1,0,.06s0,0,0,0l0,0-.1.09,0,0,0,0h0l0,0h0a0,0,0,0,0,0,0l0,0,0,0a0,0,0,0,1,0,0l-.1.07-.09.07s0,0,0,0l0,0,0,0-.08.05h0s0,.05-.08,0,0,0,0,0m0,.24h0v0l0,0h0l0,0,0,0a0,0,0,0,1,0,0s0,0,0,0a.08.08,0,0,1,0,.08h0l-.07,0,0,0h0m-1.25.12.1-.07h0l0,0h0l0,0h0s0,0,.06,0h.09l0,0h0l.14,0h.19l0,0,0,0h0l0,0s0,0,0,0,0,0,0,.06l0,0s0,0,0,0,0,0,0,0l0,0s0,.06.06.09a.22.22,0,0,1,0,.08v0h0v0a.13.13,0,0,1,0,.06.08.08,0,0,1,0,0,.3.3,0,0,1,0,.08l0,0h0s0,0,0,0,0,.05-.05,0v0h0s0-.06,0-.07,0,0,0-.05,0,0,0,0v0l0,0-.05-.06v0h0s-.1-.1-.15-.15l0,0-.06-.06h0a.15.15,0,0,0-.07,0,.32.32,0,0,0-.18,0h0l0,0-.06,0s-.09.05-.12,0,0,0,0,0m1.07.84a0,0,0,0,1,0,0,.1.1,0,0,1,0,0s0,0,.06,0,0,0,.06,0a.05.05,0,0,0,0,0h0l0,0s0,0,0,0,0,0,0,.05,0,0-.06,0H83.5s-.07,0-.1,0,0,0,0,0m-1.11-.58,0,0s0,0,.05-.07l.1,0h.11l.07,0h.09s0,0,.06,0l0,0a.13.13,0,0,1,.07.06l0,0,0,0s0,0,0,0a0,0,0,0,1,0,0v0h0s0,0,.05,0,0,0,0,.06a.11.11,0,0,0,0,.05s0,0,0,.06,0,0,0,0v0H83l0,0-.07,0,0,0h0l0,0h-.17l-.06,0h0l-.05,0h0l-.07-.05v0s0,0,0,0l0-.06a.15.15,0,0,1,0-.08.49.49,0,0,1,0-.12.11.11,0,0,1,0-.09m-1,.54a.24.24,0,0,1-.09,0,.25.25,0,0,1-.12,0l-.07,0v0h0l0,0h0l0,0h0l0,0v0h0s0,0,0-.05,0-.05,0-.07l0,0a.09.09,0,0,1,0,0l.07,0H81l0,0h0l0,0,0,0,.06,0h.1v0l0,0a.09.09,0,0,1,0,.05m.44-.49v0l-.12.06-.06,0,0,0s0,0,0,0,0,0,0,0,0,.07.06.08,0,0,0,0l-.06,0h-.1l-.06,0H81.2l0,0h0l-.05,0,0,0H81v0a0,0,0,0,0,0,0,0,0,0,0,1,0,0,.43.43,0,0,1,0,0l0,0h0l0,0h0v0l.08,0h0l.06,0h0a0,0,0,0,0,0,0h0l0,0,.08-.05s0,0,0,0h-.06l-.07,0-.09,0h-.06l-.08,0h0l0,0h0s-.06,0-.09,0l0,0h0s0,0,0,0,0,0,0,0h0s0,0,0,0h0l0,0H81l0,0,.09-.05s-.07,0-.11,0h0l-.07,0,0,0a.05.05,0,0,0,0,0s-.06,0-.09,0,0-.05,0-.07,0,0,0,0h0l0,0a.46.46,0,0,1,.15-.09l.05,0h.06l0,0h.06l0,0h.19l.1,0,0,0h0l.1.05,0,0h0s0,0,0,0l0,0,0,0s0,.05,0,.06,0,0,0,.09v0a.11.11,0,0,1,0,.05s0,.05,0,.07l-.06.06h0s0,0,0,0h0m1.16.86,0,0h0s0,0,0,0,0,0,0,0h-.07l0,0-.08,0-.05,0-.07,0-.15,0h-.07a.15.15,0,0,1-.11,0h0l-.06,0,0,0,0,0h0l0,0,0,0s0,0,0,0h0s0,0,0,0h0l0-.05s0,0-.05-.06,0-.07,0-.1a.07.07,0,0,0,0,0s0,0,0,0h0s0,0,0,0,0,0,0,0v0h0l0,0s0,0,0,0a0,0,0,0,0,0,0h0v0a.05.05,0,0,0,0,0h0l.05,0h.07l0,0s0,0,0,.06,0,0,0,0h0s0,0,0,0h0l0,0h0s0,0-.06.07a.06.06,0,0,1,.06,0h0l.11,0a.2.2,0,0,0,.08,0s.09,0,.13,0h0l0,0s0,0,0,0a.11.11,0,0,1,0,.08v0h0l0,0h-.06s0,0,0,0l-.06.05,0,0s0,0,0,0,0,0,0,0h0l.06,0h.08l0,0h0l0,0,.06,0,0,0h0s0,0,.08,0l.14-.06h0a.09.09,0,0,1,.07,0s0,0,0,0,0,0,0,0l-.06,0,0,0s0,0,0,0,0,0-.06.06h0l-.1.06h.07a.42.42,0,0,1,.12,0l0,0,.16-.08H83l0,0,.05,0h0a.13.13,0,0,1,0,.09,0,0,0,0,1,0,0l0,0,0,0,0,0s0,0,0,0a.08.08,0,0,1,0,.05m1.3.31h0l0,0,0,0a.76.76,0,0,0-.08.11,1.5,1.5,0,0,0-.13.11l0,0v0l-.08.07s0,0,0,0a.3.3,0,0,0-.13,0h-.29a.05.05,0,0,0,0,0h0l0,0h-.08l0,0h0l0,0,0,0,0,0a.34.34,0,0,1,0-.12v-.06s0,0,0,0l0,0a.15.15,0,0,1,0,.07l0,.05,0,0h.08s0,0,.05,0h.09l.06,0a1.15,1.15,0,0,0,.19,0l.06,0,.07,0h0l.09-.08,0,0,0,0,0,0-.1,0h0l-.13.05-.13,0a.38.38,0,0,1-.15,0h0s0,0,0,0,0,0,0,0,0,0,0,0h0l0,0h0l0,0a.09.09,0,0,0,.07,0l.06,0h0s0,0,0,0,0,0,0,0a.13.13,0,0,0,.1,0H84l0,0,.06,0,.07,0s0,0,.05,0a1.29,1.29,0,0,0-.21.06l-.12,0-.1,0-.21.06a1,1,0,0,1-.22.05h-.19s0,0,0-.05l.07,0h.06l0,0h.06l.05,0,.06,0h.05l.06,0,.06,0,.06,0h0l0,0,.15-.08s.06,0,.08,0a.08.08,0,0,0-.07,0l-.14,0-.19,0h-.26l-.07,0h-.07s-.06,0-.08,0,0,0,0,0h0l0,0h.09l.09,0,.06,0h.07l0,0h.18l.1,0h.09l0,0h0l0,0,0,0s.05,0,.07,0h.07l.05,0h.06s0,0,0,0h0l0,0h0l0,0a0,0,0,0,1,0,0s0,0,0,0l0,0h0l0,0a0,0,0,0,1,0,0l0-.06,0,0s0,0,0,0a0,0,0,0,0,0,0h0l0,0s0,0,0,0h0s0,0,0,0a.09.09,0,0,0,0-.05c0-.09-.1-.12-.14-.19h0l0,0a0,0,0,0,1,0,0l0,0,0,0,0,0h0l-.07,0-.11,0,0,0h-.11l0,0h0l0,0h0l0,0,0,.05h0a.08.08,0,0,1,0,0h0a.64.64,0,0,0-.08.14.83.83,0,0,1-.07.13h0v0l0,.08,0,0v.05l-.08,0,0,0s0,0-.08,0,0,0,0-.05l0,0a0,0,0,0,1,0,0,0,0,0,0,0,0,0l0-.07h0a0,0,0,0,0,0,0h0v0l0,0h0l0,0h0v0l0,0v0h0l0,0a.06.06,0,0,1,0,0h0l.07-.08,0,0,.06,0,0-.05h0l0,0,0,0,0,0h.11s0,0,.06,0h.1a.54.54,0,0,1,.23,0l0,0h0l0,0h0l0,0,0,0h0l0,.06s0,0,0,0l0,0h0l0,0s0,0,0,0v0s0,0,0,0,0,.06,0,.08,0,0,0,0v0l0,.05s0,0,0,0a.29.29,0,0,1-.05.14v0h0l0,0v0a.3.3,0,0,0,0,.08s0,0,0,0,0,0,0,0,0,0,0,.06l-.06.08,0,0s0,0,0,0,0,0,0,0l-.06,0v0h0v0l0,0h0v0l-.07.07v0h0v0h0l0,0,0,0h0a.1.1,0,0,1,0,0l0,.06,0,0m.4-1.14a.11.11,0,0,1,0,.05l0,0h0l0,0h-.06l-.16.06h-.09v0s0,0,0,0h.09c.06,0,.14,0,.18,0s0,0,0,0l-.06.06s0,.05-.05.05,0,0,0,0l0,0-.06,0s0,0-.1,0l0,0h0l0,0h0l-.06,0-.1-.07v0l0,0h0l0-.07a.08.08,0,0,1,0,0s0,0,0-.06a.76.76,0,0,1,0-.11.11.11,0,0,1,0-.06.2.2,0,0,1,0-.08h0v0h0a0,0,0,0,1,0,0c0-.05,0-.07.09-.09a1,1,0,0,1,.17,0h0l0,0,.07,0h0l0,0h0l0,0s0,0,0,0l0,0,0,0v0s0,0,0,0m.67,1.46,0,.06,0,.05s0,0,0,0l0,0a.13.13,0,0,0,0,.06l0,0h0l0,0h0v0h0a.07.07,0,0,1,0,0l0,0h0l0,0h-.08l0,0,0,0s0,0-.06,0h.18l.07,0a1,1,0,0,0,.17,0l0,0h.08V154l0,0h0l-.07,0H85l-.2,0h-.1l0,0h-.14l-.06,0h-.08v0h0l0,0,0,0h0a0,0,0,0,1,0,0s0,0,.08,0h.14l0,0s0,0,0,0h0l0,0a.3.3,0,0,0,.14-.06l.08-.06.06,0,0,0,0,0h0l0,0h0l-.06,0,0,0-.08,0-.07,0h-.26a.4.4,0,0,1-.19,0s0,0,0,0a.19.19,0,0,0,.11-.05l.07,0h0l0,0h.13l.12,0s0,0,0,0h0v0h0l0,0,0,0s0,0,0,0a1.37,1.37,0,0,0-.23,0h-.09l-.07,0h-.23s0,0-.07,0v0l0,0h0s0,0,0,0l0,0a.48.48,0,0,1,.21-.07h0l.07,0a0,0,0,0,0,0,0,.53.53,0,0,0,.19-.06l.07-.08.16-.14v0h0l0,0,0,0,0-.05v0l0-.05,0-.05h0a.93.93,0,0,0,0-.1v0s0,0,0,0h0v0l0-.05-.16-.15-.07,0h0s0,0,0,0a.07.07,0,0,1,0-.05s0,0,0,0a.18.18,0,0,1,0-.07h.07s0,0,0,0l0,0s0,0,0,0l.11.08,0,.05s0,0,0,0h0v0l0,0s0,0,0,0v0l0,0,0,.06,0,.06s0,0,0,0h0s0,0,0,0h0s0,0,0,.08v.1h0v0a.11.11,0,0,0,0,.08.21.21,0,0,0,0,.06.08.08,0,0,0,0,0,0,0,0,0,1,0,0h0l0,.05,0,0h0s0,0,0,0a.15.15,0,0,1,0,.06l0,.08s0,0,0,0h0v0l0,0m1.43.41s0,0,0,0a0,0,0,0,0,0,0,0,0,0,0,1,0,0l0,0,0,0,0,0h0l0,0a.1.1,0,0,1,0,0l0,0h0l0,0,0,0h0l0,0,0,0h-.08a.37.37,0,0,1-.15,0h0l0,0h0s0,0,0,0h-.07l0,0h-.11l-.12-.09h0a0,0,0,0,1,0,0h-.07l0,0h0l0,0,0,0h0l0,0h-.05s0-.07.05-.11l0,0v-.05s0,0,0,0a.09.09,0,0,0,0-.05l0-.05v0h0v0l0-.05a0,0,0,0,1,0,0l0,0v0a.12.12,0,0,0,0-.08l.06,0v0s0,0,0,0a1.45,1.45,0,0,1,.3,0s.07,0,.09.06,0,0,0,0h0l0,0,0,0v0h0l0,0h0l-.06.07s0,0-.05,0l0,0h0l-.09,0-.06,0h-.09l0,0s0,0,.06,0l.06,0h0a.18.18,0,0,1,.07,0h.06s0,0,0,0,0,0,0,0l.1-.06h0l0,0,0,0v0h0l0,0h0l0,0,0,0h0l0,0a.24.24,0,0,1,0,.1l0,0s0,0,0,0h0l0,0,0,0-.05.05,0,0h0l-.09.05-.06,0h-.09s0,0,0,0,0,0,.06,0l0,0h0l.08,0h0l0,0H86l.06,0,0,0h0l0,0h0l0,0h0s0-.05.08-.06,0-.06.08,0,0,0,0,0l0,.06,0,0s0,0,0,0,0,0,0,.06l-.07.07,0,0h0l0,0h-.07l0,0s0,0,0,0l0,0a0,0,0,0,0,0,0h0l0,0H86s0,0,0,0a0,0,0,0,1,0,0h.11l0,0a0,0,0,0,1,0,0l.07,0a0,0,0,0,0,0,0h0l0,0,0,0,.06-.05,0,0s.08-.08.09,0h0s0,0,0,0a0,0,0,0,0,0,0h0s0,0,0,0h0a.05.05,0,0,0,0,0l-.07.07,0,0s0,0,0,0l0,0h0l-.07.06a.23.23,0,0,0-.07.07l.1,0,0,0,0,0,0,0h0a.11.11,0,0,1,.07,0s0,0,0,0,0-.05.08,0,0,.07,0,.11m1.06-.74h0s0,0,0,0a.11.11,0,0,0,0,0h0a.15.15,0,0,1-.06.05l0,0h0s0,0,0,0l0,0-.09.06h0l0,0,0,0,0,0h-.23l-.09,0,0,0h0s0,0,0,0h0l0,0h-.05v0h0l-.19-.14h0l0,0,0,0,0,0,0,0-.1,0a.31.31,0,0,0-.09-.07h0l0,0h0l0,0a.71.71,0,0,0-.09-.07l0-.05.07,0s0,0,.06,0h.15s0,0,0,.06h-.1s0,0,0,0l0,0h.07l.05,0h.15l0,0h0l0,0,.07,0h.07l.08,0h.06a.15.15,0,0,1,.07,0s0,0,0,0h0l.07,0s0,0,0,0,0,0,0,0l0,0h0s0,0,0,0h0l0,0h0l0,0h0l0,0h0a.13.13,0,0,1,0,.06l0,.05v0a.05.05,0,0,0,0,0l0,0,0,0h0l0,0,0,0,0,0,0,0s0,0,0,0l0,0h0l-.09.06-.06,0h-.09l0,0s0,0,.06,0l.06,0,.05,0h0l0,0,.09,0s0,0,0,0,.06,0,.08,0l.08,0h0l0,0h0l.06,0,0,0h0s.05-.05.08-.05,0,0,.05,0,0,0,0,0a0,0,0,0,1,0,0h0l0,0h0v0a.1.1,0,0,0,0,.05.13.13,0,0,0,0,.07l-.08.07-.06.05h0l0,0h-.07l0,.05h0s0,0,0,0h0s0,0,0,0h0l0,0h.06s0,0,0,0l0,0,.07,0,0,0,.07,0h0l.07,0h0l0,0,0,0,.06,0,0,0s.07-.08.09,0,0,0,0,0l0,0a.35.35,0,0,1,0,.08,0,0,0,0,1,0,0l0,0h0l0,0s0,0,0,0l0,0a0,0,0,0,0,0,0s0,0-.07.06a.34.34,0,0,0-.06.06.18.18,0,0,0,.09,0l0,0,0,0h0l0,0s0,0,0,0h0l0,0,0,0s.05.06,0,.1m1.79-1.29s0,0,0,0l0,0h0v0a.05.05,0,0,0,0,0l0,0h0l0,0,0,0s0,0,0,0v0h0l-.06,0-.11,0s-.13,0-.13,0,.07,0,.09,0,0,0,0,0h.07l.05,0s.09,0,.12-.08h0a.27.27,0,0,1,.08-.07l0,0h0l0,0"/><path class="cls-3" d="M96.69,151.29s0,0,0,0l0,0,0,0,0,0,0,0a.24.24,0,0,0-.08.06h0l0,0,0,0h0l0,0,0,0s0,0,0,.06h.12s0,0,.05,0l0,0,0,0h0s0,0,0,0,0,0,0,0,0,0,0,0a0,0,0,0,1,0,0l.11-.08Z"/><path class="cls-3" d="M96.69,150.85l-.09.07-.23.17-.25.18h0a0,0,0,0,1,0,0l-.06,0,0,0-.1,0,0,0h0a.34.34,0,0,0-.06.06l0,.05,0,0s0,0,0,.06h.15l.19-.08a.34.34,0,0,1,.09-.08l0,0h0s0-.05.05-.06l0,0,0,0,0,0s0,0,0,0l0,0c.06-.05.1-.11.16-.16s0-.06.08-.07h0l0,0,0,0a0,0,0,0,1,0,0Z"/><path class="cls-4" d="M182.35,157.11h-5.89l-1.81-4.34h-9.81l-1.65,4.34H157.4l8.85-22h6.34ZM169.5,140.4l-3.21,8.53H173Z"/><rect class="cls-4" x="184.76" y="135.16" width="5.47" height="21.95"/><path class="cls-4" d="M204.62,135.16c8,0,12.14,5,12.14,11,0,6.3-4,10.94-12.75,10.94h-9.08v-22Zm-4.22,17.93H204c5.5,0,7.14-3.74,7.14-7,0-3.76-2-6.95-7.21-6.95H200.4Z"/><path class="cls-4" d="M75.75,160.15a3.68,3.68,0,0,0,1.75,2.52v-2.52Z"/><path class="cls-4" d="M78.42,160.15h2.4V164a11.43,11.43,0,0,1-2.4-.83Z"/><path class="cls-4" d="M81.74,160.15v4.08s.85.15,1,.16a6.18,6.18,0,0,1,1.41.31v-4.55Z"/><path class="cls-4" d="M96.72,160.15A3.68,3.68,0,0,1,95,162.67v-2.52Z"/><path class="cls-4" d="M94.05,160.15h-2.4V164a11.24,11.24,0,0,0,2.4-.83Z"/><path class="cls-4" d="M90.78,160.15v4.08s-.85.15-1,.16a6,6,0,0,0-1.41.31v-4.55Z"/><path class="cls-4" d="M86.26,166.23a3.11,3.11,0,0,0-1.17-1.12v-5h2.34v5a3.11,3.11,0,0,0-1.17,1.12"/><polygon class="cls-1" points="77.87 157.75 78.69 157.75 78.69 157.76 78.03 158.25 78.28 159.03 78.28 159.03 77.63 158.55 76.98 159.03 76.97 159.03 77.23 158.25 76.56 157.76 76.56 157.75 77.38 157.75 77.62 156.99 77.63 156.99 77.87 157.75"/><polygon class="cls-1" points="80.76 157.75 81.58 157.75 81.58 157.76 80.92 158.25 81.17 159.03 81.17 159.03 80.52 158.55 79.87 159.03 79.86 159.03 80.12 158.25 79.45 157.76 79.45 157.75 80.27 157.75 80.52 156.99 80.52 156.99 80.76 157.75"/><polygon class="cls-1" points="83.65 157.75 84.47 157.75 84.47 157.76 83.81 158.25 84.06 159.03 84.06 159.03 83.41 158.55 82.76 159.03 82.75 159.03 83.01 158.25 82.34 157.76 82.34 157.75 83.16 157.75 83.4 156.99 83.41 156.99 83.65 157.75"/><polygon class="cls-1" points="86.54 157.75 87.36 157.75 87.36 157.76 86.7 158.25 86.95 159.03 86.95 159.03 86.3 158.55 85.65 159.03 85.64 159.03 85.9 158.25 85.23 157.76 85.23 157.75 86.05 157.75 86.29 156.99 86.3 156.99 86.54 157.75"/><polygon class="cls-1" points="89.43 157.75 90.25 157.75 90.25 157.76 89.59 158.25 89.84 159.03 89.84 159.03 89.19 158.55 88.53 159.03 88.53 159.03 88.79 158.25 88.12 157.76 88.12 157.75 88.94 157.75 89.19 156.99 89.19 156.99 89.43 157.75"/><polygon class="cls-1" points="92.32 157.75 93.14 157.75 93.14 157.76 92.48 158.25 92.73 159.03 92.73 159.03 92.08 158.55 91.42 159.03 91.42 159.03 91.68 158.25 91.01 157.76 91.01 157.75 91.83 157.75 92.07 156.99 92.08 156.99 92.32 157.75"/><polygon class="cls-1" points="95.21 157.75 96.03 157.75 96.03 157.76 95.37 158.25 95.62 159.03 95.62 159.03 94.97 158.55 94.31 159.03 94.31 159.03 94.57 158.25 93.9 157.76 93.9 157.75 94.72 157.75 94.96 156.99 94.97 156.99 95.21 157.75"/><path class="cls-1" d="M81.48,138.66v2c0,1.14-.78,1.54-1.73,1.54S78,141.69,78,140.63v-2h.86v2a.78.78,0,0,0,.85.79.8.8,0,0,0,.88-.85v-1.93Z"/><path class="cls-1" d="M84.54,139.56a2.72,2.72,0,0,0-1.09-.31c-.31,0-.51.11-.51.28,0,.52,1.76.38,1.76,1.58,0,.66-.56,1-1.33,1a2.29,2.29,0,0,1-1.24-.34v-.74a2,2,0,0,0,1.18.45c.32,0,.5-.12.5-.32,0-.57-1.75-.36-1.75-1.6,0-.6.51-1,1.31-1a2.75,2.75,0,0,1,1.17.27Z"/><path class="cls-1" d="M88.83,142.11H87.9l-.28-.68H86.08l-.26.68h-.91l1.39-3.45h1Zm-2-2.62-.5,1.34h1.06Z"/><rect class="cls-1" x="89.26" y="138.66" width="0.86" height="3.45"/><path class="cls-1" d="M92.43,138.66a1.72,1.72,0,0,1,1.91,1.73c0,1-.63,1.72-2,1.72H90.91v-3.45Zm-.66,2.82h.56a1.1,1.1,0,1,0,0-2.19h-.55Z"/></svg>